<svg xmlns="http://www.w3.org/2000/svg" width="214" height="77.75" viewBox="0 0 214 77.75">
  <g id="Group_59" data-name="Group 59" transform="translate(-630 -652.125)">
    <line id="Line_15" data-name="Line 15" y2="49.5" transform="translate(662.882 654.125)" fill="none" stroke="#1799e4" stroke-linecap="round" stroke-width="4"/>
    <line id="Line_16" data-name="Line 16" y2="49.5" transform="translate(654.882 678.375)" fill="none" stroke="#1799e4" stroke-linecap="round" stroke-width="4"/>
    <line id="Line_17" data-name="Line 17" y2="49.5" transform="translate(662.882 654.125)" fill="none" stroke="#1799e4" stroke-linecap="round" stroke-width="4"/>
    <line id="Line_18" data-name="Line 18" y2="49.5" transform="translate(654.882 678.375)" fill="none" stroke="#1799e4" stroke-linecap="round" stroke-width="4"/>
    <line id="Line_19" data-name="Line 19" y2="49.5" transform="translate(736 654.125)" fill="none" stroke="#fc8106" stroke-linecap="round" stroke-width="4"/>
    <line id="Line_20" data-name="Line 20" y2="49.5" transform="translate(728 678.375)" fill="none" stroke="#fc8106" stroke-linecap="round" stroke-width="4"/>
    <line id="Line_21" data-name="Line 21" y2="49.5" transform="translate(736 654.125)" fill="none" stroke="#fc8106" stroke-linecap="round" stroke-width="4"/>
    <line id="Line_22" data-name="Line 22" y2="49.5" transform="translate(728 678.375)" fill="none" stroke="#fc8106" stroke-linecap="round" stroke-width="4"/>
    <line id="Line_23" data-name="Line 23" y2="49.5" transform="translate(810 654.125)" fill="none" stroke="#de4545" stroke-linecap="round" stroke-width="4"/>
    <line id="Line_24" data-name="Line 24" y2="49.5" transform="translate(802 678.375)" fill="none" stroke="#de4545" stroke-linecap="round" stroke-width="4"/>
    <line id="Line_25" data-name="Line 25" y2="49.5" transform="translate(810 654.125)" fill="none" stroke="#de4545" stroke-linecap="round" stroke-width="4"/>
    <line id="Line_26" data-name="Line 26" y2="49.5" transform="translate(802 678.375)" fill="none" stroke="#de4545" stroke-linecap="round" stroke-width="4"/>
    <rect id="Rectangle_1" data-name="Rectangle 1" width="46" height="46" rx="11" transform="translate(638.023 670.425) rotate(-8)" fill="#1799e4"/>
    <g id="Rectangle_2" data-name="Rectangle 2" transform="translate(630 657)" fill="none" stroke="#1799e4" stroke-width="4">
      <rect width="68" height="68" rx="16" stroke="none"/>
      <rect x="2" y="2" width="64" height="64" rx="14" fill="none"/>
    </g>
    <text id="A" transform="translate(650 704.5)" fill="#fff" font-size="40" font-family="SegoeUI-Bold, Segoe UI" font-weight="700"><tspan x="0" y="0">A</tspan></text>
    <path id="Path_14" data-name="Path 14" d="M11,0H35A11,11,0,0,1,46,11V35A11,11,0,0,1,35,46H11A11,11,0,0,1,0,35V11A11,11,0,0,1,11,0Z" transform="translate(711.023 670.425) rotate(-8)" fill="#fc8106"/>
    <g id="Path_15" data-name="Path 15" transform="translate(703 657)" fill="none">
      <path d="M16,0H52A16,16,0,0,1,68,16V52A16,16,0,0,1,52,68H16A16,16,0,0,1,0,52V16A16,16,0,0,1,16,0Z" stroke="none"/>
      <path d="M 16 4 C 12.79467391967773 4 9.781211853027344 5.248210906982422 7.514713287353516 7.514713287353516 C 5.248210906982422 9.781211853027344 4 12.79467391967773 4 16 L 4 52 C 4 55.20531463623047 5.248210906982422 58.21877288818359 7.514713287353516 60.48527526855469 C 9.781211853027344 62.75178909301758 12.7946891784668 64 16 64 L 52 64 C 55.20531463623047 64 58.21877288818359 62.75178909301758 60.48527526855469 60.48527526855469 C 62.75178909301758 58.21877288818359 64 55.20531463623047 64 52 L 64 16 C 64 12.7946891784668 62.75178909301758 9.781211853027344 60.48527526855469 7.514713287353516 C 58.21877288818359 5.248210906982422 55.20531463623047 4 52 4 L 16 4 M 16 0 L 52 0 C 60.83655166625977 0 68 7.163436889648438 68 16 L 68 52 C 68 60.83655166625977 60.83655166625977 68 52 68 L 16 68 C 7.163436889648438 68 0 60.83655166625977 0 52 L 0 16 C 0 7.163436889648438 7.163436889648438 0 16 0 Z" stroke="none" fill="#fc8106"/>
    </g>
    <text id="A-2" data-name="A" transform="translate(723 704.5)" fill="#fff" font-size="40" font-family="SegoeUI-Bold, Segoe UI" font-weight="700"><tspan x="0" y="0">B</tspan></text>
    <rect id="Rectangle_3" data-name="Rectangle 3" width="46" height="46" rx="11" transform="translate(783.685 670.881) rotate(-9)" fill="#de4545"/>
    <g id="Rectangle_4" data-name="Rectangle 4" transform="translate(776 657)" fill="none" stroke="#de4545" stroke-width="4">
      <rect width="68" height="68" rx="16" stroke="none"/>
      <rect x="2" y="2" width="64" height="64" rx="14" fill="none"/>
    </g>
    <text id="A-3" data-name="A" transform="translate(796 704.5)" fill="#fff" font-size="40" font-family="SegoeUI-Bold, Segoe UI" font-weight="700"><tspan x="0" y="0">C</tspan></text>
  </g>
</svg>
