<svg xmlns="http://www.w3.org/2000/svg" xmlns:xlink="http://www.w3.org/1999/xlink" width="91.226" height="68.5" viewBox="0 0 91.226 68.5">
  <defs>
    <filter id="Rectangle_1" x="2.612" y="5.5" width="86" height="63" filterUnits="userSpaceOnUse">
      <feOffset dy="3" input="SourceAlpha"/>
      <feGaussianBlur stdDeviation="1.5" result="blur"/>
      <feFlood flood-opacity="0.161"/>
      <feComposite operator="in" in2="blur"/>
      <feComposite in="SourceGraphic"/>
    </filter>
    <filter id="Polygon_2" x="0" y="11.197" width="85.226" height="57.303" filterUnits="userSpaceOnUse">
      <feOffset dx="-3" dy="3" input="SourceAlpha"/>
      <feGaussianBlur stdDeviation="1.5" result="blur-2"/>
      <feFlood flood-opacity="0.161"/>
      <feComposite operator="in" in2="blur-2"/>
      <feComposite in="SourceGraphic"/>
    </filter>
    <filter id="Polygon_3" x="6" y="11.197" width="85.226" height="57.303" filterUnits="userSpaceOnUse">
      <feOffset dx="3" dy="3" input="SourceAlpha"/>
      <feGaussianBlur stdDeviation="1.5" result="blur-3"/>
      <feFlood flood-opacity="0.161"/>
      <feComposite operator="in" in2="blur-3"/>
      <feComposite in="SourceGraphic"/>
    </filter>
    <filter id="Polygon_4" x="2.997" y="5.5" width="85.226" height="57.303" filterUnits="userSpaceOnUse">
      <feOffset dy="3" input="SourceAlpha"/>
      <feGaussianBlur stdDeviation="1.5" result="blur-4"/>
      <feFlood flood-opacity="0.161"/>
      <feComposite operator="in" in2="blur-4"/>
      <feComposite in="SourceGraphic"/>
    </filter>
  </defs>
  <g id="Group_3" data-name="Group 3" transform="translate(-740 -485.426)">
    <g id="Group_1" data-name="Group 1" transform="translate(-5.12 -27.548)">
      <g id="Group_2" data-name="Group 2" transform="translate(0 4)">
        <g id="Group_1-2" data-name="Group 1">
          <g id="Group_3-2" data-name="Group 3" transform="translate(-325.421 -85.104)">
            <g id="Group_2-2" data-name="Group 2">
              <g id="Group_1-3" data-name="Group 1" transform="translate(-134.347 103.078)">
                <g transform="matrix(1, 0, 0, 1, 1204.89, 491)" filter="url(#Rectangle_1)">
                  <rect id="Rectangle_1-2" data-name="Rectangle 1" width="77" height="54" rx="3" transform="translate(7.11 7)" fill="#4c5a81"/>
                </g>
                <g transform="matrix(1, 0, 0, 1, 1204.89, 491)" filter="url(#Polygon_2)">
                  <path id="Polygon_2-2" data-name="Polygon 2" d="M39.192,2.781a3,3,0,0,1,4.617,0l35.111,42.3A3,3,0,0,1,76.611,50H6.389A3,3,0,0,1,4.08,45.084Z" transform="translate(4.11 11)" fill="#4c5a81"/>
                </g>
                <g transform="matrix(1, 0, 0, 1, 1204.89, 491)" filter="url(#Polygon_3)">
                  <path id="Polygon_3-2" data-name="Polygon 3" d="M39.192,2.781a3,3,0,0,1,4.617,0l35.111,42.3A3,3,0,0,1,76.611,50H6.389A3,3,0,0,1,4.08,45.084Z" transform="translate(4.11 11)" fill="#4c5a81"/>
                </g>
                <g transform="matrix(1, 0, 0, 1, 1204.89, 491)" filter="url(#Polygon_4)">
                  <path id="Polygon_4-2" data-name="Polygon 4" d="M39.192,2.781a3,3,0,0,1,4.617,0l35.111,42.3A3,3,0,0,1,76.611,50H6.389A3,3,0,0,1,4.08,45.084Z" transform="translate(87.11 57) rotate(180)" fill="#4c5a81"/>
                </g>
              </g>
              <text id="_" data-name="@" transform="translate(1099.653 632.078)" fill="#fff" font-size="35" font-family="SegoeUI-Bold, Segoe UI" font-weight="700"><tspan x="0" y="0">@</tspan></text>
            </g>
          </g>
        </g>
      </g>
    </g>
  </g>
</svg>
