<svg xmlns="http://www.w3.org/2000/svg" xmlns:xlink="http://www.w3.org/1999/xlink" width="142.432" height="184.138" viewBox="0 0 142.432 184.138">
  <defs>
    <filter id="Rectangle_50" x="34.146" y="41.478" width="77.898" height="132.885" filterUnits="userSpaceOnUse">
      <feOffset dx="3" input="SourceAlpha"/>
      <feGaussianBlur stdDeviation="1" result="blur"/>
      <feFlood flood-opacity="0.161"/>
      <feComposite operator="in" in2="blur"/>
      <feComposite in="SourceGraphic"/>
    </filter>
  </defs>
  <g id="Group_46" data-name="Group 46" transform="translate(-901.784 -127.452)">
    <g id="Group_45" data-name="Group 45">
      <g id="Group_49" data-name="Group 49" transform="translate(860.61 145)">
        <g id="Group_23" data-name="Group 23" transform="translate(19.831)">
          <g id="Group_8" data-name="Group 8">
            <g id="Group_3" data-name="Group 3" transform="translate(25 -2)">
              <ellipse id="Ellipse_74" data-name="Ellipse 74" cx="66.079" cy="15.912" rx="66.079" ry="15.912" transform="translate(0 136.766)" fill="#fcf8f8"/>
              <line id="Line_2" data-name="Line 2" x1="7.374" transform="translate(117.196)" fill="none"/>
            </g>
          </g>
        </g>
        <rect id="Rectangle_11" data-name="Rectangle 11" width="20.893" height="4.225" rx="2.112" transform="translate(86.659 41.135)" fill="#fff"/>
        <rect id="Rectangle_12" data-name="Rectangle 12" width="20.893" height="4.225" rx="2.112" transform="translate(86.659 47.44)" fill="#fff"/>
        <rect id="Rectangle_13" data-name="Rectangle 13" width="20.893" height="4.225" rx="2.112" transform="translate(86.659 54.375)" fill="#fff"/>
        <rect id="Rectangle_14" data-name="Rectangle 14" width="20.893" height="4.225" rx="2.112" transform="translate(111.27 41.135)" fill="#fff"/>
        <rect id="Rectangle_15" data-name="Rectangle 15" width="20.893" height="4.225" rx="2.112" transform="translate(111.27 47.44)" fill="#fff"/>
        <rect id="Rectangle_16" data-name="Rectangle 16" width="20.893" height="4.225" rx="2.112" transform="translate(111.27 54.375)" fill="#fff"/>
        <rect id="Rectangle_17" data-name="Rectangle 17" width="47.317" height="4.225" rx="2.112" transform="translate(85.316 66.984)" fill="#fff"/>
        <rect id="Rectangle_18" data-name="Rectangle 18" width="47.317" height="4.225" rx="2.112" transform="translate(85.316 73.92)" fill="#fff"/>
        <rect id="Rectangle_19" data-name="Rectangle 19" width="47.317" height="4.225" rx="2.112" transform="translate(85.316 80.854)" fill="#fff"/>
        <rect id="Rectangle_20" data-name="Rectangle 20" width="47.317" height="4.225" rx="2.112" transform="translate(85.316 87.789)" fill="#fff"/>
        <rect id="Rectangle_21" data-name="Rectangle 21" width="47.317" height="4.225" rx="2.112" transform="translate(85.316 97.247)" fill="#fff"/>
        <rect id="Rectangle_22" data-name="Rectangle 22" width="47.317" height="4.225" rx="2.112" transform="translate(85.316 104.182)" fill="#fff"/>
        <rect id="Rectangle_23" data-name="Rectangle 23" width="47.317" height="4.225" rx="2.112" transform="translate(85.316 111.117)" fill="#fff"/>
        <rect id="Rectangle_24" data-name="Rectangle 24" width="47.317" height="4.225" rx="2.112" transform="translate(85.316 118.052)" fill="#fff"/>
        <rect id="Rectangle_25" data-name="Rectangle 25" width="20.893" height="4.225" rx="2.112" transform="translate(86.659 127.509)" fill="#fff"/>
        <rect id="Rectangle_26" data-name="Rectangle 26" width="20.893" height="4.225" rx="2.112" transform="translate(86.659 133.814)" fill="#fff"/>
        <rect id="Rectangle_27" data-name="Rectangle 27" width="20.893" height="4.225" rx="2.112" transform="translate(111.27 127.509)" fill="#fff"/>
        <rect id="Rectangle_28" data-name="Rectangle 28" width="20.893" height="4.225" rx="2.112" transform="translate(111.27 133.814)" fill="#fff"/>
        <g transform="matrix(1, 0, 0, 1, 41.17, -17.55)" filter="url(#Rectangle_50)">
          <rect id="Rectangle_50-2" data-name="Rectangle 50" width="71.898" height="126.885" rx="27" transform="translate(34.15 44.48)" fill="#fff"/>
        </g>
        <path id="Rectangle_51" data-name="Rectangle 51" d="M19.528,0H48.682C59.468,0,68.208,10.018,68.208,22.377V91.833c0,12.359-8.743,22.377-19.528,22.377H19.528C8.744,114.21,0,104.191,0,91.833V22.377C0,10.018,8.743,0,19.528,0Z" transform="translate(77.165 31.86)" fill="#77bad8"/>
        <rect id="Rectangle_52" data-name="Rectangle 52" width="20.893" height="4.225" rx="2.112" transform="translate(89.521 40.505)" fill="#fff"/>
        <rect id="Rectangle_53" data-name="Rectangle 53" width="20.893" height="4.225" rx="2.112" transform="translate(89.521 53.744)" fill="#fff"/>
        <rect id="Rectangle_54" data-name="Rectangle 54" width="20.893" height="4.225" rx="2.112" transform="translate(114.132 40.505)" fill="#fff"/>
        <rect id="Rectangle_55" data-name="Rectangle 55" width="20.893" height="4.225" rx="2.112" transform="translate(114.132 46.809)" fill="#fff"/>
        <rect id="Rectangle_56" data-name="Rectangle 56" width="20.893" height="4.225" rx="2.112" transform="translate(114.132 53.744)" fill="#fff"/>
        <rect id="Rectangle_57" data-name="Rectangle 57" width="47.317" height="4.225" rx="2.112" transform="translate(88.131 66.354)" fill="#fff"/>
        <rect id="Rectangle_58" data-name="Rectangle 58" width="47.317" height="4.225" rx="2.112" transform="translate(88.131 73.289)" fill="#fff"/>
        <rect id="Rectangle_59" data-name="Rectangle 59" width="47.317" height="4.225" rx="2.112" transform="translate(88.131 80.224)" fill="#fff"/>
        <rect id="Rectangle_60" data-name="Rectangle 60" width="47.317" height="4.225" rx="2.112" transform="translate(88.131 87.159)" fill="#fff"/>
        <rect id="Rectangle_61" data-name="Rectangle 61" width="47.317" height="4.225" rx="2.112" transform="translate(88.131 96.616)" fill="#fff"/>
        <rect id="Rectangle_62" data-name="Rectangle 62" width="47.317" height="4.225" rx="2.112" transform="translate(88.131 103.551)" fill="#fff"/>
        <rect id="Rectangle_63" data-name="Rectangle 63" width="47.317" height="4.225" rx="2.112" transform="translate(88.131 110.486)" fill="#fff"/>
        <rect id="Rectangle_64" data-name="Rectangle 64" width="47.317" height="4.225" rx="2.112" transform="translate(88.131 117.421)" fill="#fff"/>
        <rect id="Rectangle_65" data-name="Rectangle 65" width="20.893" height="4.225" rx="2.112" transform="translate(89.521 126.878)" fill="#fff"/>
        <rect id="Rectangle_66" data-name="Rectangle 66" width="20.893" height="4.225" rx="2.112" transform="translate(89.521 133.184)" fill="#fff"/>
        <rect id="Rectangle_67" data-name="Rectangle 67" width="20.893" height="4.225" rx="2.112" transform="translate(114.132 126.878)" fill="#fff"/>
        <rect id="Rectangle_68" data-name="Rectangle 68" width="20.893" height="4.225" rx="2.112" transform="translate(114.132 133.184)" fill="#fff"/>
        <rect id="Rectangle_69" data-name="Rectangle 69" width="20.893" height="4.225" rx="2.112" transform="translate(89.521 46.809)" fill="#fff"/>
      </g>
      <path id="Union_1" data-name="Union 1" d="M-227.234-1.1A18,18,0,0,1-237-17.11a18,18,0,0,1,18-18,18,18,0,0,1,18,18A18,18,0,0,1-210.765-1.1L-219,20.888Z" transform="translate(1192 162.562)" fill="#fc8106"/>
      <path id="Union_2" data-name="Union 2" d="M-251.873,15.705q-.467.221-.952.417a18,18,0,0,1-23.432-9.947,18,18,0,0,1,9.946-23.432,18,18,0,0,1,23.432,9.947,17.916,17.916,0,0,1,.78,11.085l11.126,18.911Z" transform="translate(1179.357 169.452)" fill="#fc8106"/>
      <path id="Union_3" data-name="Union 3" d="M-266.21,3.774a17.915,17.915,0,0,1,.78-11.085A18,18,0,0,1-242-17.257a18,18,0,0,1,9.947,23.432,18,18,0,0,1-23.432,9.947q-.485-.2-.952-.417l-20.9,6.98Z" transform="translate(1274.952 170.452)" fill="#fc8106"/>
      <rect id="Rectangle_55-2" data-name="Rectangle 55" width="20.893" height="4.225" rx="2.112" transform="translate(908.742 161.585)" fill="#fff"/>
      <rect id="Rectangle_55-3" data-name="Rectangle 55" width="20.893" height="4.225" rx="2.112" transform="translate(908.742 167.284)" fill="#fff"/>
      <rect id="Rectangle_55-4" data-name="Rectangle 55" width="20.893" height="4.225" rx="2.112" transform="translate(908.742 172.982)" fill="#fff"/>
      <rect id="Rectangle_55-5" data-name="Rectangle 55" width="20.893" height="4.225" rx="2.112" transform="translate(962.554 137.585)" fill="#fff"/>
      <rect id="Rectangle_55-6" data-name="Rectangle 55" width="20.893" height="4.225" rx="2.112" transform="translate(962.554 143.284)" fill="#fff"/>
      <rect id="Rectangle_55-7" data-name="Rectangle 55" width="20.893" height="4.225" rx="2.112" transform="translate(962.554 148.982)" fill="#fff"/>
      <rect id="Rectangle_55-8" data-name="Rectangle 55" width="20.893" height="4.225" rx="2.112" transform="translate(1016.365 161.585)" fill="#fff"/>
      <rect id="Rectangle_55-9" data-name="Rectangle 55" width="20.893" height="4.225" rx="2.112" transform="translate(1016.365 167.284)" fill="#fff"/>
      <rect id="Rectangle_55-10" data-name="Rectangle 55" width="20.893" height="4.225" rx="2.112" transform="translate(1016.365 172.982)" fill="#fff"/>
    </g>
  </g>
</svg>
