<svg xmlns="http://www.w3.org/2000/svg" xmlns:xlink="http://www.w3.org/1999/xlink" width="132.158" height="107.888" viewBox="0 0 132.158 107.888">
  <defs>
    <filter id="Rectangle_1" x="24.732" y="36.476" width="86" height="63" filterUnits="userSpaceOnUse">
      <feOffset dy="3" input="SourceAlpha"/>
      <feGaussianBlur stdDeviation="1.5" result="blur"/>
      <feFlood flood-opacity="0.161"/>
      <feComposite operator="in" in2="blur"/>
      <feComposite in="SourceGraphic"/>
    </filter>
    <filter id="Polygon_2" x="18.732" y="40.476" width="92" height="59" filterUnits="userSpaceOnUse">
      <feOffset dx="-3" dy="3" input="SourceAlpha"/>
      <feGaussianBlur stdDeviation="1.5" result="blur-2"/>
      <feFlood flood-opacity="0.161"/>
      <feComposite operator="in" in2="blur-2"/>
      <feComposite in="SourceGraphic"/>
    </filter>
    <filter id="Polygon_3" x="24.732" y="40.476" width="92" height="59" filterUnits="userSpaceOnUse">
      <feOffset dx="3" dy="3" input="SourceAlpha"/>
      <feGaussianBlur stdDeviation="1.5" result="blur-3"/>
      <feFlood flood-opacity="0.161"/>
      <feComposite operator="in" in2="blur-3"/>
      <feComposite in="SourceGraphic"/>
    </filter>
    <filter id="Polygon_4" x="21.732" y="36.476" width="92" height="59" filterUnits="userSpaceOnUse">
      <feOffset dy="3" input="SourceAlpha"/>
      <feGaussianBlur stdDeviation="1.5" result="blur-4"/>
      <feFlood flood-opacity="0.161"/>
      <feComposite operator="in" in2="blur-4"/>
      <feComposite in="SourceGraphic"/>
    </filter>
  </defs>
  <g id="Group_3" data-name="Group 3" transform="translate(-1048.421 -563.103)">
    <g id="Group_2" data-name="Group 2">
      <ellipse id="Ellipse_74" data-name="Ellipse 74" cx="66.079" cy="15.912" rx="66.079" ry="15.912" transform="translate(1048.421 639.167)" fill="#fcf8f8"/>
      <g id="Group_1" data-name="Group 1" transform="translate(-134.347 103.078)">
        <g transform="matrix(1, 0, 0, 1, 1182.77, 460.02)" filter="url(#Rectangle_1)">
          <rect id="Rectangle_1-2" data-name="Rectangle 1" width="77" height="54" rx="3" transform="translate(29.23 37.98)" fill="#feeea1"/>
        </g>
        <g transform="matrix(1, 0, 0, 1, 1182.77, 460.02)" filter="url(#Polygon_2)">
          <path id="Polygon_2-2" data-name="Polygon 2" d="M39.192,2.781a3,3,0,0,1,4.617,0l35.111,42.3A3,3,0,0,1,76.611,50H6.389A3,3,0,0,1,4.08,45.084Z" transform="translate(26.23 41.98)" fill="#feeea1"/>
        </g>
        <g transform="matrix(1, 0, 0, 1, 1182.77, 460.02)" filter="url(#Polygon_3)">
          <path id="Polygon_3-2" data-name="Polygon 3" d="M39.192,2.781a3,3,0,0,1,4.617,0l35.111,42.3A3,3,0,0,1,76.611,50H6.389A3,3,0,0,1,4.08,45.084Z" transform="translate(26.23 41.98)" fill="#feeea1"/>
        </g>
        <g transform="matrix(1, 0, 0, 1, 1182.77, 460.02)" filter="url(#Polygon_4)">
          <path id="Polygon_4-2" data-name="Polygon 4" d="M39.192,2.781a3,3,0,0,1,4.617,0l35.111,42.3A3,3,0,0,1,76.611,50H6.389A3,3,0,0,1,4.08,45.084Z" transform="translate(109.23 87.98) rotate(180)" fill="#feeea1"/>
        </g>
      </g>
      <path id="Union_2" data-name="Union 2" d="M-251.873,15.7q-.467.221-.952.417a18,18,0,0,1-23.432-9.947,18,18,0,0,1,9.946-23.432A18,18,0,0,1-242.879-7.31a17.916,17.916,0,0,1,.78,11.085l11.126,18.911Z" transform="translate(1344.225 593.634)" fill="#fc8106"/>
      <rect id="Rectangle_55" data-name="Rectangle 55" width="20.893" height="4.225" rx="2.112" transform="translate(1073.61 585.767)" fill="#fff"/>
      <rect id="Rectangle_55-2" data-name="Rectangle 55" width="20.893" height="4.225" rx="2.112" transform="translate(1073.61 591.466)" fill="#fff"/>
      <rect id="Rectangle_55-3" data-name="Rectangle 55" width="20.893" height="4.225" rx="2.112" transform="translate(1073.61 597.164)" fill="#fff"/>
      <path id="Union_2-2" data-name="Union 2" d="M-249.908,26.8q.618.293,1.26.552a23.826,23.826,0,0,0,31.016-13.166A23.826,23.826,0,0,0-230.8-16.831,23.826,23.826,0,0,0-261.813-3.665a23.715,23.715,0,0,0-1.032,14.673L-277.572,36.04Z" transform="translate(1396.47 581.675)" fill="#77bad8"/>
      <rect id="Rectangle_55-4" data-name="Rectangle 55" width="27.655" height="5.592" rx="2.112" transform="translate(1143.715 577.273)" fill="#fff"/>
      <rect id="Rectangle_55-5" data-name="Rectangle 55" width="27.655" height="5.592" rx="2.112" transform="translate(1143.715 584.816)" fill="#fff"/>
      <rect id="Rectangle_55-6" data-name="Rectangle 55" width="27.655" height="5.592" rx="2.112" transform="translate(1143.715 592.359)" fill="#fff"/>
    </g>
  </g>
</svg>
