<svg xmlns="http://www.w3.org/2000/svg" width="133.5" height="121.5" viewBox="0 0 133.5 121.5">
  <g id="Group_1" data-name="Group 1" transform="translate(-623 -216.3)">
    <g id="Group_16" data-name="Group 16" transform="translate(-170 52.3)">
      <line id="Line_1" data-name="Line 1" x2="94" transform="translate(813.5 254.5)" fill="none" stroke="#707070" stroke-linecap="round" stroke-width="1"/>
      <line id="Line_2" data-name="Line 2" y2="94" transform="translate(817.5 164.5)" fill="none" stroke="#707070" stroke-linecap="round" stroke-width="1"/>
      <line id="Line_3" data-name="Line 3" y2="4" transform="translate(847.5 254.5)" fill="none" stroke="#707070" stroke-linecap="round" stroke-width="1"/>
      <line id="Line_4" data-name="Line 4" y2="4" transform="translate(877.5 254.5)" fill="none" stroke="#707070" stroke-linecap="round" stroke-width="1"/>
      <line id="Line_5" data-name="Line 5" y2="4" transform="translate(817.5 224.5) rotate(90)" fill="none" stroke="#707070" stroke-linecap="round" stroke-width="1"/>
      <line id="Line_6" data-name="Line 6" y2="4" transform="translate(817.5 194.5) rotate(90)" fill="none" stroke="#707070" stroke-linecap="round" stroke-width="1"/>
      <line id="Line_7" data-name="Line 7" y2="4" transform="translate(817.5 164.5) rotate(90)" fill="none" stroke="#707070" stroke-linecap="round" stroke-width="1"/>
      <line id="Line_8" data-name="Line 8" y2="4" transform="translate(907.5 254.5)" fill="none" stroke="#707070" stroke-linecap="round" stroke-width="1"/>
      <g id="Group_11" data-name="Group 11" transform="translate(478.089 -726.35)">
        <g id="Group_12" data-name="Group 12" transform="translate(306.411 964.15)">
          <text id="Truck_Driver" data-name="Truck Driver" transform="translate(18 42.7)" font-size="20" font-family="SegoeUI-Bold, Segoe UI" font-weight="700"><tspan x="0" y="0">Truck Drivers</tspan></text>
        </g>
      </g>
      <circle id="Ellipse_1" data-name="Ellipse 1" cx="4.5" cy="4.5" r="4.5" transform="translate(793 270)" fill="#45bd32"/>
      <rect id="Rectangle_1" data-name="Rectangle 1" width="4" height="18.5" transform="translate(824 236.5)" fill="#4c5a81"/>
      <rect id="Rectangle_2" data-name="Rectangle 2" width="4" height="43.5" transform="translate(829 211.5)" fill="#45bd32"/>
      <rect id="Rectangle_3" data-name="Rectangle 3" width="4" height="24" transform="translate(834 231)" fill="#4c5a81"/>
      <rect id="Rectangle_4" data-name="Rectangle 4" width="4" height="48" transform="translate(839 207)" fill="#45bd32"/>
      <rect id="Rectangle_5" data-name="Rectangle 5" width="4" height="26" transform="translate(844 229)" fill="#4c5a81"/>
      <rect id="Rectangle_6" data-name="Rectangle 6" width="4" height="54" transform="translate(849 201)" fill="#45bd32"/>
      <rect id="Rectangle_7" data-name="Rectangle 7" width="4" height="28" transform="translate(854 227)" fill="#4c5a81"/>
      <rect id="Rectangle_8" data-name="Rectangle 8" width="4" height="58" transform="translate(859 197)" fill="#45bd32"/>
      <rect id="Rectangle_9" data-name="Rectangle 9" width="4" height="26" transform="translate(864 229)" fill="#4c5a81"/>
      <rect id="Rectangle_10" data-name="Rectangle 10" width="4" height="62" transform="translate(869 193)" fill="#45bd32"/>
      <rect id="Rectangle_11" data-name="Rectangle 11" width="4" height="24" transform="translate(874 231)" fill="#4c5a81"/>
      <rect id="Rectangle_12" data-name="Rectangle 12" width="4" height="68.3" transform="translate(879 186.7)" fill="#45bd32"/>
      <rect id="Rectangle_13" data-name="Rectangle 13" width="4" height="26" transform="translate(884 229)" fill="#4c5a81"/>
      <rect id="Rectangle_14" data-name="Rectangle 14" width="4" height="72.3" transform="translate(889 182.7)" fill="#45bd32"/>
      <rect id="Rectangle_15" data-name="Rectangle 15" width="4" height="28" transform="translate(894 227)" fill="#4c5a81"/>
      <rect id="Rectangle_16" data-name="Rectangle 16" width="4" height="81.3" transform="translate(899 173.7)" fill="#45bd32"/>
    </g>
  </g>
</svg>
