<svg xmlns="http://www.w3.org/2000/svg" width="170" height="170" viewBox="0 0 170 170">
  <g id="Group_61" data-name="Group 61" transform="translate(-881.706 -378.579)">
    <g id="Group_60" data-name="Group 60">
      <g id="Group_44" data-name="Group 44" transform="translate(-48.261 -90.907)">
        <g id="Group_37" data-name="Group 37" transform="translate(11.122 7.012)">
          <g id="Group_28" data-name="Group 28" transform="translate(823.832 465.304)">
            <g id="Group_20" data-name="Group 20" transform="translate(21.638 17.248)">
              <g id="Group_11" data-name="Group 11">
                <rect id="Rectangle_54" data-name="Rectangle 54" width="43.72" height="43.72" rx="13" transform="translate(158.656) rotate(45)" fill="#de4545"/>
                <path id="Rectangle_55" data-name="Rectangle 55" d="M12,0H31.72a12,12,0,0,1,12,12V31.72a12,12,0,0,1-12,12H12a12,12,0,0,1-12-12V12A12,12,0,0,1,12,0Z" transform="translate(192.381 33.726) rotate(45)" fill="#fc8106"/>
                <rect id="Rectangle_57" data-name="Rectangle 57" width="43.72" height="43.72" rx="12" transform="translate(158.093 68.013) rotate(45)" fill="#fff"/>
                <path id="Rectangle_55-2" data-name="Rectangle 55" d="M12,0H31.72a12,12,0,0,1,12,12V31.72a12,12,0,0,1-12,12H12a12,12,0,0,1-12-12V12A12,12,0,0,1,12,0Z" transform="translate(124.381 33.726) rotate(45)" fill="#4949b2"/>
              </g>
            </g>
          </g>
        </g>
      </g>
      <g id="Rectangle_5" data-name="Rectangle 5" transform="translate(966.706 378.579) rotate(45)" fill="none" stroke="#1799e4" stroke-width="3">
        <rect width="120.208" height="120.208" rx="28" stroke="none"/>
        <rect x="1.5" y="1.5" width="117.208" height="117.208" rx="26.5" fill="none"/>
      </g>
    </g>
  </g>
</svg>
