<svg xmlns="http://www.w3.org/2000/svg" width="173" height="167" viewBox="0 0 173 167">
  <g id="Group_58" data-name="Group 58" transform="translate(-222 -445)">
    <g id="Ellipse_7" data-name="Ellipse 7" transform="translate(246 465)" fill="none" stroke="#1799e4" stroke-width="3">
      <circle cx="62.5" cy="62.5" r="62.5" stroke="none"/>
      <circle cx="62.5" cy="62.5" r="61" fill="none"/>
    </g>
    <g id="Group_55" data-name="Group 55" transform="translate(-68 6)">
      <g id="Ellipse_6" data-name="Ellipse 6" transform="translate(327 472)" fill="none" stroke="#1799e4" stroke-width="8">
        <circle cx="49.5" cy="49.5" r="49.5" stroke="none"/>
        <circle cx="49.5" cy="49.5" r="45.5" fill="none"/>
      </g>
      <g id="Group_2" data-name="Group 2" transform="translate(-242 -164)">
        <circle id="Ellipse_6-2" data-name="Ellipse 6" cx="31" cy="31" r="31" transform="translate(643 655)" fill="#1799e4"/>
        <g id="Group_1" data-name="Group 1" transform="translate(659.464 672.118)">
          <rect id="Rectangle_2" data-name="Rectangle 2" width="6.742" height="25.846" rx="3.371" transform="translate(24.712 1)" fill="#fff"/>
          <rect id="Rectangle_5" data-name="Rectangle 5" width="7.866" height="26.969" rx="3.933" transform="translate(28.083 9.989) rotate(90)" fill="#fff"/>
          <rect id="Rectangle_6" data-name="Rectangle 6" width="5.618" height="20.227" rx="2.809" transform="translate(32.578 4.371)" fill="#fff"/>
          <rect id="Rectangle_2-2" data-name="Rectangle 2" width="6.742" height="25.846" rx="3.371" transform="translate(-2.257 1.562)" fill="#fff"/>
          <rect id="Rectangle_6-2" data-name="Rectangle 6" width="5.618" height="20.227" rx="2.809" transform="translate(-8.999 4.372)" fill="#fff"/>
        </g>
        <g id="Group_56" data-name="Group 56" transform="translate(0 13)">
          <circle id="Ellipse_7-2" data-name="Ellipse 7" cx="31" cy="31" r="31" transform="translate(588 695)" fill="#1799e4"/>
          <g id="Group_3" data-name="Group 3" transform="translate(600.31 725.153)">
            <rect id="Rectangle_7" data-name="Rectangle 7" width="38.207" height="3.371" rx="1.686" transform="translate(0 10.455)" fill="#fff"/>
            <path id="Path_4" data-name="Path 4" d="M8.32.414H23.141c.944,0,7.647-.931,7.647,0s-6.7,3.371-7.647,3.371H8.32C7.376,3.785,0,1.345,0,.414S7.376.414,8.32.414Z" transform="translate(3.599 13.413)" fill="#fff"/>
            <path id="Subtraction_1" data-name="Subtraction 1" d="M15.436,10.455c-.268,0-.561,0-.9-.011.253-.006.51-.015.782-.022.6-.018,1.225-.038,1.875-.039C16.7,10.432,16.122,10.455,15.436,10.455Zm-10.285,0a8.989,8.989,0,0,1-3.73-.561A2.579,2.579,0,0,1,0,7.3C0,3.276,4.617,0,10.293,0a13.658,13.658,0,0,1,5.175.989,9.515,9.515,0,0,1,3.69,2.6A9.643,9.643,0,0,0,17.243,3.4c-3.831,0-6.948,2.212-6.948,4.931,0,1.249.621,1.863,2.076,2.054-.751-.022-1.453-.035-2.076-.035-.986,0-1.931.029-2.843.058-.815.033-1.583.057-2.3.057Z" transform="translate(7.009)" fill="#fff"/>
            <path id="Path_3" data-name="Path 3" d="M6.656,0c3.681,0,6.656,2.179,6.656,4.866s-2.98,2.026-6.656,2.026S0,7.556,0,4.866,2.98,0,6.656,0Z" transform="translate(17.887 3.491)" fill="#fff"/>
          </g>
          <g id="Group_4" data-name="Group 4" transform="translate(614.528 724.142) rotate(-72)">
            <path id="Subtraction_2" data-name="Subtraction 2" d="M4.527,6.018a6.059,6.059,0,0,1-3.252-.86H3.294V4.3H.36A2.146,2.146,0,0,1,0,3.443H4.153V2.586H.044a2.408,2.408,0,0,1,.449-.857h2.8V.872h-1.8A6.471,6.471,0,0,1,4.579.012h.264a5.054,5.054,0,0,1,4.2,1.769c-2.174.322-3.413.727-3.4,1.112S6.954,3.6,9.2,3.771C8.621,5.04,6.846,5.94,4.788,6.018Z" fill="#fff"/>
            <path id="Path_6" data-name="Path 6" d="M9.427,0C14.634,0,19.1.787,19.1,1.43S14.633,2.571,9.427,2.571,0,2,0,1.285,4.221,0,9.427,0Z" transform="translate(6.454 1.607) rotate(-2)" fill="#fff"/>
          </g>
        </g>
        <circle id="Ellipse_8" data-name="Ellipse 8" cx="31" cy="31" r="31" transform="translate(532 655)" fill="#1799e4"/>
        <g id="Group_19" data-name="Group 19" transform="translate(542.572 662.793)">
          <g id="Group_5" data-name="Group 5" transform="translate(7.966)">
            <path id="Path_7" data-name="Path 7" d="M0,15.9c6.358-3.681,8.868-4.183,9.2-5.02S13.72,0,13.72,0l8.031,6.358V16.9" transform="translate(0 22.525)" fill="none" stroke="#fff" stroke-linecap="round" stroke-width="4"/>
            <path id="Path_8" data-name="Path 8" d="M0,12.214V0L5.522,4.685,11.211,1" transform="translate(13.72 10.311)" fill="none" stroke="#fff" stroke-linecap="round" stroke-width="4"/>
            <path id="Path_9" data-name="Path 9" d="M5.354,0,0,5.522v6.023" transform="translate(8.366 10.311)" fill="none" stroke="#fff" stroke-linecap="round" stroke-width="4"/>
            <g id="Ellipse_2" data-name="Ellipse 2" transform="translate(8.89 0)" fill="#fff" stroke="#fff" stroke-width="1">
              <circle cx="5.057" cy="5.057" r="5.057" stroke="none"/>
              <circle cx="5.057" cy="5.057" r="4.557" fill="none"/>
            </g>
          </g>
          <g id="Rectangle_11" data-name="Rectangle 11" transform="translate(16.856 41.682)" fill="#fff" stroke="#fff" stroke-linecap="round" stroke-width="1">
            <rect width="15.732" height="4.495" rx="2" stroke="none"/>
            <rect x="0.5" y="0.5" width="14.732" height="3.495" rx="1.5" fill="none"/>
          </g>
          <g id="Rectangle_12" data-name="Rectangle 12" transform="translate(4.495 2.351)" fill="#fff" stroke="#fff" stroke-linecap="round" stroke-width="1">
            <rect width="11.238" height="2.247" rx="1.123" stroke="none"/>
            <rect x="0.5" y="0.5" width="10.238" height="1.247" rx="0.623" fill="none"/>
          </g>
          <g id="Rectangle_13" data-name="Rectangle 13" transform="translate(0 5.723)" fill="#fff" stroke="#fff" stroke-linecap="round" stroke-width="1">
            <rect width="13.485" height="2.247" rx="1.123" stroke="none"/>
            <rect x="0.5" y="0.5" width="12.485" height="1.247" rx="0.623" fill="none"/>
          </g>
          <g id="Rectangle_14" data-name="Rectangle 14" transform="translate(8.989 9.094)" fill="#fff" stroke="#fff" stroke-linecap="round" stroke-width="1">
            <rect width="6.742" height="2.247" rx="1.123" stroke="none"/>
            <rect x="0.5" y="0.5" width="5.742" height="1.247" rx="0.623" fill="none"/>
          </g>
        </g>
        <g id="Group_57" data-name="Group 57" transform="translate(-1 -11)">
          <path id="Ellipse_9" data-name="Ellipse 9" d="M31,0A31,31,0,1,1,0,31,31,31,0,0,1,31,0Z" transform="translate(588 614)" fill="#1799e4"/>
          <rect id="Rectangle_15" data-name="Rectangle 15" width="41.578" height="4.495" rx="2" transform="translate(598.624 630.836)" fill="#fff"/>
          <rect id="Rectangle_16" data-name="Rectangle 16" width="41.578" height="4.495" rx="2" transform="translate(598.624 638.703)" fill="#fff"/>
          <rect id="Rectangle_17" data-name="Rectangle 17" width="41.578" height="4.495" rx="2" transform="translate(598.624 646.568)" fill="#fff"/>
          <rect id="Rectangle_18" data-name="Rectangle 18" width="41.578" height="4.495" rx="2" transform="translate(598.624 654.435)" fill="#fff"/>
        </g>
      </g>
    </g>
    <circle id="Ellipse_8-2" data-name="Ellipse 8" cx="9.5" cy="9.5" r="9.5" transform="translate(344 562)" fill="#1799e4"/>
    <circle id="Ellipse_9-2" data-name="Ellipse 9" cx="9.5" cy="9.5" r="9.5" transform="translate(343 474)" fill="#1799e4"/>
    <circle id="Ellipse_10" data-name="Ellipse 10" cx="9.5" cy="9.5" r="9.5" transform="translate(255 563)" fill="#1799e4"/>
    <circle id="Ellipse_11" data-name="Ellipse 11" cx="9.5" cy="9.5" r="9.5" transform="translate(254 475)" fill="#1799e4"/>
  </g>
</svg>
