<svg xmlns="http://www.w3.org/2000/svg" width="220.255" height="75.969" viewBox="0 0 220.255 75.969">
  <g id="Group_70" data-name="Group 70" transform="translate(-1132.223 -302.61)">
    <g id="Group_64" data-name="Group 64">
      <g id="Group_9" data-name="Group 9" transform="translate(13.006 162.81)">
        <g id="Group_5" data-name="Group 5" transform="translate(26.686 6.535)">
          <path id="Path_118" data-name="Path 118" d="M35.848,0c27.3,0,34.407,1.185,34.407,29.088S65.16,63.31,37.862,63.31,0,58.445,0,30.522,8.547,0,35.848,0Z" transform="translate(1092.531 145.265)" fill="#b1d7ee"/>
        </g>
      </g>
      <g id="Group_9-2" data-name="Group 9" transform="translate(88.006 162.81)">
        <g id="Group_5-2" data-name="Group 5" transform="translate(26.686 6.535)">
          <path id="Path_118-2" data-name="Path 118" d="M35.848,0c27.3,0,34.407,1.185,34.407,29.088S65.16,63.31,37.862,63.31,0,58.445,0,30.522,8.547,0,35.848,0Z" transform="translate(1092.531 145.265)" fill="#f9d0a7"/>
          <circle id="Ellipse_4" data-name="Ellipse 4" cx="4.5" cy="4.5" r="4.5" transform="translate(1099.314 152.172)" fill="#f9d0a7"/>
          <circle id="Ellipse_5" data-name="Ellipse 5" cx="4.5" cy="4.5" r="4.5" transform="translate(1109.314 152.172)" fill="#f9d0a7"/>
          <circle id="Ellipse_6" data-name="Ellipse 6" cx="4.5" cy="4.5" r="4.5" transform="translate(1119.314 152.172)" fill="#f9d0a7"/>
        </g>
      </g>
      <g id="Group_9-3" data-name="Group 9" transform="translate(163.006 163.469)">
        <g id="Group_5-3" data-name="Group 5" transform="translate(26.686 6.535)">
          <path id="Path_118-3" data-name="Path 118" d="M35.848,0c27.3,0,34.407,1.185,34.407,29.088S65.16,63.31,37.862,63.31,0,58.445,0,30.522,8.547,0,35.848,0Z" transform="translate(1092.531 145.265)" fill="#e4c1c1"/>
          <circle id="Ellipse_4-2" data-name="Ellipse 4" cx="4.5" cy="4.5" r="4.5" transform="translate(1099.314 152.172)" fill="#e4c1c1"/>
          <circle id="Ellipse_5-2" data-name="Ellipse 5" cx="4.5" cy="4.5" r="4.5" transform="translate(1109.314 152.172)" fill="#e4c1c1"/>
          <circle id="Ellipse_6-2" data-name="Ellipse 6" cx="4.5" cy="4.5" r="4.5" transform="translate(1119.314 152.172)" fill="#e4c1c1"/>
        </g>
      </g>
      <g id="Group_9-4" data-name="Group 9" transform="translate(13.006 156.841)">
        <g id="Group_5-4" data-name="Group 5" transform="translate(26.686 6.535)">
          <path id="Path_118-4" data-name="Path 118" d="M35.848,0c27.3,0,34.407,1.185,34.407,29.088S65.16,63.31,37.862,63.31,0,58.445,0,30.522,8.547,0,35.848,0Z" transform="translate(1092.531 145.265)" fill="#73bae4"/>
        </g>
      </g>
      <g id="Group_9-5" data-name="Group 9" transform="translate(88.006 156.841)">
        <g id="Group_5-5" data-name="Group 5" transform="translate(26.686 6.535)">
          <path id="Path_118-5" data-name="Path 118" d="M35.848,0c27.3,0,34.407,1.185,34.407,29.088S65.16,63.31,37.862,63.31,0,58.445,0,30.522,8.547,0,35.848,0Z" transform="translate(1092.531 145.265)" fill="#feae5f"/>
          <circle id="Ellipse_4-3" data-name="Ellipse 4" cx="4.5" cy="4.5" r="4.5" transform="translate(1099.314 152.172)" fill="#feae5f"/>
          <circle id="Ellipse_5-3" data-name="Ellipse 5" cx="4.5" cy="4.5" r="4.5" transform="translate(1109.314 152.172)" fill="#feae5f"/>
          <circle id="Ellipse_6-3" data-name="Ellipse 6" cx="4.5" cy="4.5" r="4.5" transform="translate(1119.314 152.172)" fill="#feae5f"/>
        </g>
      </g>
      <g id="Group_9-6" data-name="Group 9" transform="translate(163.006 157.5)">
        <g id="Group_5-6" data-name="Group 5" transform="translate(26.686 6.535)">
          <path id="Path_118-6" data-name="Path 118" d="M35.848,0c27.3,0,34.407,1.185,34.407,29.088S65.16,63.31,37.862,63.31,0,58.445,0,30.522,8.547,0,35.848,0Z" transform="translate(1092.531 145.265)" fill="#e19797"/>
          <circle id="Ellipse_4-4" data-name="Ellipse 4" cx="4.5" cy="4.5" r="4.5" transform="translate(1099.314 152.172)" fill="#e19797"/>
          <circle id="Ellipse_5-4" data-name="Ellipse 5" cx="4.5" cy="4.5" r="4.5" transform="translate(1109.314 152.172)" fill="#e19797"/>
          <circle id="Ellipse_6-4" data-name="Ellipse 6" cx="4.5" cy="4.5" r="4.5" transform="translate(1119.314 152.172)" fill="#e19797"/>
        </g>
      </g>
      <g id="Group_9-7" data-name="Group 9" transform="translate(13.006 150.81)">
        <g id="Group_5-7" data-name="Group 5" transform="translate(26.686 6.535)">
          <path id="Path_118-7" data-name="Path 118" d="M35.848,0c27.3,0,34.407,1.185,34.407,29.088S65.16,63.31,37.862,63.31,0,58.445,0,30.522,8.547,0,35.848,0Z" transform="translate(1092.531 145.265)" fill="#1799e4"/>
        </g>
      </g>
      <g id="Group_9-8" data-name="Group 9" transform="translate(88.006 150.81)">
        <g id="Group_5-8" data-name="Group 5" transform="translate(26.686 6.535)">
          <path id="Path_118-8" data-name="Path 118" d="M35.848,0c27.3,0,34.407,1.185,34.407,29.088S65.16,63.31,37.862,63.31,0,58.445,0,30.522,8.547,0,35.848,0Z" transform="translate(1092.531 145.265)" fill="#fc8106"/>
          <circle id="Ellipse_4-5" data-name="Ellipse 4" cx="4.5" cy="4.5" r="4.5" transform="translate(1099.314 152.172)" fill="#fc8106"/>
          <circle id="Ellipse_5-5" data-name="Ellipse 5" cx="4.5" cy="4.5" r="4.5" transform="translate(1109.314 152.172)" fill="#fc8106"/>
          <circle id="Ellipse_6-5" data-name="Ellipse 6" cx="4.5" cy="4.5" r="4.5" transform="translate(1119.314 152.172)" fill="#fc8106"/>
        </g>
      </g>
      <g id="Group_9-9" data-name="Group 9" transform="translate(163.006 151.469)">
        <g id="Group_5-9" data-name="Group 5" transform="translate(26.686 6.535)">
          <path id="Path_118-9" data-name="Path 118" d="M35.848,0c27.3,0,34.407,1.185,34.407,29.088S65.16,63.31,37.862,63.31,0,58.445,0,30.522,8.547,0,35.848,0Z" transform="translate(1092.531 145.265)" fill="#de4545"/>
          <circle id="Ellipse_4-6" data-name="Ellipse 4" cx="4.5" cy="4.5" r="4.5" transform="translate(1099.314 152.172)" fill="#de4545"/>
          <circle id="Ellipse_5-6" data-name="Ellipse 5" cx="4.5" cy="4.5" r="4.5" transform="translate(1109.314 152.172)" fill="#de4545"/>
          <circle id="Ellipse_6-6" data-name="Ellipse 6" cx="4.5" cy="4.5" r="4.5" transform="translate(1119.314 152.172)" fill="#de4545"/>
        </g>
      </g>
      <rect id="Rectangle_31" data-name="Rectangle 31" width="59" height="6" rx="3" transform="translate(1213.037 324.007)" fill="#fff"/>
      <rect id="Rectangle_32" data-name="Rectangle 32" width="59" height="6" rx="3" transform="translate(1213.037 331.007)" fill="#fff"/>
      <rect id="Rectangle_33" data-name="Rectangle 33" width="59" height="6" rx="3" transform="translate(1213.037 338.007)" fill="#fff"/>
      <rect id="Rectangle_34" data-name="Rectangle 34" width="59" height="6" rx="3" transform="translate(1213.037 345.007)" fill="#fff"/>
      <circle id="Ellipse_4-7" data-name="Ellipse 4" cx="4.5" cy="4.5" r="4.5" transform="translate(1213.351 309)" fill="#fff"/>
      <circle id="Ellipse_5-7" data-name="Ellipse 5" cx="4.5" cy="4.5" r="4.5" transform="translate(1223.351 309)" fill="#fff"/>
      <circle id="Ellipse_6-7" data-name="Ellipse 6" cx="4.5" cy="4.5" r="4.5" transform="translate(1233.351 309)" fill="#fff"/>
      <circle id="Ellipse_6-8" data-name="Ellipse 6" cx="21.706" cy="21.706" r="21.706" transform="translate(1295.644 312.558)" fill="#d86a6a"/>
    </g>
    <path id="Subtraction_4" data-name="Subtraction 4" d="M21.872,37.819H16.041V34.73a15.858,15.858,0,0,1-6.383-2.442L7.6,34.338,3.491,30.229l1.965-1.962A16.024,16.024,0,0,1,2.7,21.824H0V16H2.7A15.8,15.8,0,0,1,5.462,9.556L3.493,7.594,7.615,3.483,9.671,5.53a15.859,15.859,0,0,1,6.37-2.437V0h5.831V3.271a15.859,15.859,0,0,1,5.972,2.658L30.3,3.476l4.134,4.118L31.9,10.131a15.839,15.839,0,0,1,2.364,5.864h3.663v5.821H34.253a15.846,15.846,0,0,1-2.365,5.874l2.543,2.533L30.3,34.334l-2.453-2.445a15.889,15.889,0,0,1-5.972,2.661Zm-4.94-27.689a9.455,9.455,0,1,0,6.7,2.762A9.455,9.455,0,0,0,16.933,10.129Z" transform="translate(1148.39 315.541)" fill="#fff"/>
    <text id="_" data-name="$" transform="translate(1308.781 349.579)" fill="#fff" font-size="41" font-family="SegoeUI-Bold, Segoe UI" font-weight="700"><tspan x="0" y="0">?</tspan></text>
  </g>
</svg>
