<svg xmlns="http://www.w3.org/2000/svg" width="119.136" height="80.78" viewBox="0 0 119.136 80.78">
  <g id="Group_3" data-name="Group 3" transform="translate(-916.139 -482.22)">
    <g id="Group_2" data-name="Group 2">
      <g id="Group_1" data-name="Group 1">
        <path id="Subtraction_1" data-name="Subtraction 1" d="M47,102A46.961,46.961,0,0,1,0,55c0-1.332.056-2.678.168-4a47,47,0,0,0,93.664,0c.112,1.331.168,2.676.168,4a46.96,46.96,0,0,1-47,47Z" transform="translate(929 461)" fill="#1799e4"/>
        <path id="Path_1" data-name="Path 1" d="M16,0c8.837,0,12.845,2.175,12.845,7.7S24.837,20,16,20,0,15.523,0,10,7.163,0,16,0Z" transform="matrix(0.978, 0.208, -0.208, 0.978, 944.02, 482.22)" fill="#1799e4"/>
        <path id="Path_2" data-name="Path 2" d="M12.845,0C4.009,0,0,2.175,0,7.7S4.009,20,12.845,20s16-4.477,16-10S21.682,0,12.845,0Z" transform="matrix(0.978, -0.208, 0.208, 0.978, 976.861, 488.217)" fill="#1799e4"/>
        <path id="Path_3" data-name="Path 3" d="M11.932-3.015C18.284-3.015,23,6,23,6S18.471.555,12.119.555,0,6,0,6,5.581-3.015,11.932-3.015Z" transform="matrix(0.966, 0.259, -0.259, 0.966, 1012.278, 506.347)" fill="#1799e4"/>
        <path id="Path_4" data-name="Path 4" d="M11.932-3.015C18.284-3.015,23,6,23,6S18.471.555,12.119.555,0,6,0,6,5.581-3.015,11.932-3.015Z" transform="matrix(0.966, 0.259, -0.259, 0.966, 1012.278, 506.347)" fill="#1799e4"/>
        <path id="Path_5" data-name="Path 5" d="M11.493-3.015c6.117,0,10.66,8.683,10.66,8.683S17.79.424,11.673.424,0,5.668,0,5.668,5.375-3.015,11.493-3.015Z" transform="translate(917.02 514.579) rotate(-17)" fill="#1799e4"/>
        <path id="Path_7" data-name="Path 7" d="M7.286-.039C9.675-.039,9.011.9,9.011,2S7.3,3.1,4.916,3.1,0,3.1,0,2,4.9-.039,7.286-.039Z" transform="matrix(0.809, 0.588, -0.588, 0.809, 934.808, 486.176)" fill="#1799e4"/>
        <path id="Path_8" data-name="Path 8" d="M7.287,3.14c2.389,0,1.724-.934,1.724-2.039S7.3,0,4.916,0,0,0,0,1.1,4.9,3.14,7.287,3.14Z" transform="matrix(-0.809, 0.588, -0.588, -0.809, 1016.189, 488.684)" fill="#1799e4"/>
        <path id="Path_9" data-name="Path 9" d="M1.022.012c.316,0,2.469-.429,2.469.519A2.19,2.19,0,0,1,1.022,2.95,2.217,2.217,0,0,1-1.479.531C-1.479-.416.706.012,1.022.012Z" transform="translate(973.509 491.556)" fill="#1799e4"/>
      </g>
    </g>
  </g>
</svg>
