<svg xmlns="http://www.w3.org/2000/svg" width="177.764" height="123.621" viewBox="0 0 177.764 123.621">
  <g id="Group_53" data-name="Group 53" transform="translate(-375 -397)">
    <g id="Group_11" data-name="Group 11" transform="translate(-763.893 -195.087)">
      <g id="Group_8" data-name="Group 8" transform="translate(16.902 -82.882)">
        <g id="Path_5" data-name="Path 5" transform="translate(1158 674.969)">
          <path id="Path_7" data-name="Path 7" d="M17.7,0H75.054c9.776,0,17.7,7.548,17.7,16.859V71.481c0,9.311-7.925,16.859-17.7,16.859H17.7C7.925,88.34,0,80.792,0,71.481V16.859C0,7.548,7.925,0,17.7,0Z" fill="none"/>
          <path id="Path_8" data-name="Path 8" d="M17.7,8C12.352,8,8,11.974,8,16.859V71.481c0,4.885,4.352,8.859,9.7,8.859H75.054c5.349,0,9.7-3.974,9.7-8.859V16.859C84.755,11.974,80.4,8,75.054,8H17.7m0-8H75.054c9.776,0,17.7,7.548,17.7,16.859V71.481c0,9.311-7.925,16.859-17.7,16.859H17.7C7.925,88.34,0,80.792,0,71.481V16.859C0,7.548,7.925,0,17.7,0Z" fill="#fc8106"/>
        </g>
        <path id="Path_6" data-name="Path 6" d="M34.546,0,30.073,37.523H0Z" transform="translate(1237.802 798.59) rotate(180)" fill="#fc8106"/>
        <g id="Path_5-2" data-name="Path 5" transform="translate(1158 674.969)">
          <path id="Path_7-2" data-name="Path 7" d="M17.7,0H75.054c9.776,0,17.7,7.548,17.7,16.859V71.481c0,9.311-7.925,16.859-17.7,16.859H17.7C7.925,88.34,0,80.792,0,71.481V16.859C0,7.548,7.925,0,17.7,0Z" fill="none"/>
          <path id="Path_8-2" data-name="Path 8" d="M17.7,8C12.352,8,8,11.974,8,16.859V71.481c0,4.885,4.352,8.859,9.7,8.859H75.054c5.349,0,9.7-3.974,9.7-8.859V16.859C84.755,11.974,80.4,8,75.054,8H17.7m0-8H75.054c9.776,0,17.7,7.548,17.7,16.859V71.481c0,9.311-7.925,16.859-17.7,16.859H17.7C7.925,88.34,0,80.792,0,71.481V16.859C0,7.548,7.925,0,17.7,0Z" fill="#fc8106"/>
        </g>
        <path id="Path_6-2" data-name="Path 6" d="M34.546,0,30.073,37.523H0Z" transform="translate(1237.802 798.59) rotate(180)" fill="#fc8106"/>
      </g>
      <g id="Group_9" data-name="Group 9" transform="translate(87.519 -65.072)">
        <g id="Path_5-3" data-name="Path 5" transform="translate(1158 674.969)">
          <path id="Path_9" data-name="Path 9" d="M13.576,0H57.562c7.5,0,13.576,5.789,13.576,12.93V54.822c0,7.141-6.078,12.93-13.576,12.93H13.576C6.078,67.752,0,61.963,0,54.822V12.93C0,5.789,6.078,0,13.576,0Z" fill="none"/>
          <path id="Path_10" data-name="Path 10" d="M13.576,8C10.5,8,8,10.212,8,12.93V54.822c0,2.718,2.5,4.93,5.576,4.93H57.562c3.075,0,5.576-2.212,5.576-4.93V12.93c0-2.718-2.5-4.93-5.576-4.93H13.576m0-8H57.562c7.5,0,13.576,5.789,13.576,12.93V54.822c0,7.141-6.078,12.93-13.576,12.93H13.576C6.078,67.752,0,61.963,0,54.822V12.93C0,5.789,6.078,0,13.576,0Z" fill="#1799e4"/>
        </g>
        <path id="Path_6-3" data-name="Path 6" d="M26.5,0,23.064,28.778H0Z" transform="translate(1219.204 769.779) rotate(180)" fill="#1799e4"/>
      </g>
      <g id="Group_10" data-name="Group 10" transform="translate(-19.107 -52.667)">
        <g id="Path_5-4" data-name="Path 5" transform="translate(1158 674.969)">
          <path id="Path_11" data-name="Path 11" d="M10.8,0H45.781a10.55,10.55,0,0,1,10.8,10.283V43.6a10.55,10.55,0,0,1-10.8,10.283H10.8A10.55,10.55,0,0,1,0,43.6V10.283A10.55,10.55,0,0,1,10.8,0Z" fill="none"/>
          <path id="Path_12" data-name="Path 12" d="M10.8,8A2.615,2.615,0,0,0,8,10.283V43.6a2.615,2.615,0,0,0,2.8,2.283H45.781a2.615,2.615,0,0,0,2.8-2.283V10.283A2.615,2.615,0,0,0,45.781,8H10.8m0-8H45.781a10.55,10.55,0,0,1,10.8,10.283V43.6a10.55,10.55,0,0,1-10.8,10.283H10.8A10.55,10.55,0,0,1,0,43.6V10.283A10.55,10.55,0,0,1,10.8,0Z" fill="#de4545"/>
        </g>
        <path id="Path_6-4" data-name="Path 6" d="M21.072,0,18.343,22.888H0Z" transform="translate(1206.677 750.374) rotate(180)" fill="#de4545"/>
      </g>
      <text id="_" data-name="$" transform="translate(1208.279 657.087)" fill="#fc8106" font-size="60" font-family="SegoeUI-Bold, Segoe UI" font-weight="700"><tspan x="0" y="0">?</tspan></text>
      <text id="_2" data-name="$" transform="translate(1272.088 657.005)" fill="#1799e4" font-size="40" font-family="SegoeUI-Bold, Segoe UI" font-weight="700"><tspan x="0" y="0">?</tspan></text>
      <text id="_3" data-name="$" transform="translate(1160.682 659.802)" fill="#de4545" font-size="30" font-family="SegoeUI-Bold, Segoe UI" font-weight="700"><tspan x="0" y="0">?</tspan></text>
      <g id="Group_8-2" data-name="Group 8" transform="translate(16.902 -82.882)">
        <g id="Path_5-5" data-name="Path 5" transform="translate(1158 674.969)">
          <path id="Path_7-3" data-name="Path 7" d="M17.7,0H75.054c9.776,0,17.7,7.548,17.7,16.859V71.481c0,9.311-7.925,16.859-17.7,16.859H17.7C7.925,88.34,0,80.792,0,71.481V16.859C0,7.548,7.925,0,17.7,0Z" fill="none"/>
          <path id="Path_8-3" data-name="Path 8" d="M17.7,8C12.352,8,8,11.974,8,16.859V71.481c0,4.885,4.352,8.859,9.7,8.859H75.054c5.349,0,9.7-3.974,9.7-8.859V16.859C84.755,11.974,80.4,8,75.054,8H17.7m0-8H75.054c9.776,0,17.7,7.548,17.7,16.859V71.481c0,9.311-7.925,16.859-17.7,16.859H17.7C7.925,88.34,0,80.792,0,71.481V16.859C0,7.548,7.925,0,17.7,0Z" fill="#fc8106"/>
        </g>
        <path id="Path_6-5" data-name="Path 6" d="M34.546,0,30.073,37.523H0Z" transform="translate(1237.802 798.59) rotate(180)" fill="#fc8106"/>
        <g id="Path_5-6" data-name="Path 5" transform="translate(1158 674.969)">
          <path id="Path_7-4" data-name="Path 7" d="M17.7,0H75.054c9.776,0,17.7,7.548,17.7,16.859V71.481c0,9.311-7.925,16.859-17.7,16.859H17.7C7.925,88.34,0,80.792,0,71.481V16.859C0,7.548,7.925,0,17.7,0Z" fill="none"/>
          <path id="Path_8-4" data-name="Path 8" d="M17.7,8C12.352,8,8,11.974,8,16.859V71.481c0,4.885,4.352,8.859,9.7,8.859H75.054c5.349,0,9.7-3.974,9.7-8.859V16.859C84.755,11.974,80.4,8,75.054,8H17.7m0-8H75.054c9.776,0,17.7,7.548,17.7,16.859V71.481c0,9.311-7.925,16.859-17.7,16.859H17.7C7.925,88.34,0,80.792,0,71.481V16.859C0,7.548,7.925,0,17.7,0Z" fill="#fc8106"/>
        </g>
        <path id="Path_6-6" data-name="Path 6" d="M34.546,0,30.073,37.523H0Z" transform="translate(1237.802 798.59) rotate(180)" fill="#fc8106"/>
      </g>
      <text id="_4" data-name="$" transform="translate(1208.279 657.087)" fill="#fc8106" font-size="60" font-family="SegoeUI-Bold, Segoe UI" font-weight="700"><tspan x="0" y="0">?</tspan></text>
      <g id="Group_10-2" data-name="Group 10" transform="translate(-19.107 -52.667)">
        <g id="Path_5-7" data-name="Path 5" transform="translate(1158 674.969)">
          <path id="Path_11-2" data-name="Path 11" d="M10.8,0H45.781a10.55,10.55,0,0,1,10.8,10.283V43.6a10.55,10.55,0,0,1-10.8,10.283H10.8A10.55,10.55,0,0,1,0,43.6V10.283A10.55,10.55,0,0,1,10.8,0Z" fill="none"/>
          <path id="Path_12-2" data-name="Path 12" d="M10.8,8A2.615,2.615,0,0,0,8,10.283V43.6a2.615,2.615,0,0,0,2.8,2.283H45.781a2.615,2.615,0,0,0,2.8-2.283V10.283A2.615,2.615,0,0,0,45.781,8H10.8m0-8H45.781a10.55,10.55,0,0,1,10.8,10.283V43.6a10.55,10.55,0,0,1-10.8,10.283H10.8A10.55,10.55,0,0,1,0,43.6V10.283A10.55,10.55,0,0,1,10.8,0Z" fill="#de4545"/>
        </g>
        <path id="Path_6-7" data-name="Path 6" d="M21.072,0,18.343,22.888H0Z" transform="translate(1206.677 750.374) rotate(180)" fill="#de4545"/>
      </g>
      <text id="_5" data-name="$" transform="translate(1160.682 659.802)" fill="#de4545" font-size="30" font-family="SegoeUI-Bold, Segoe UI" font-weight="700"><tspan x="0" y="0">?</tspan></text>
    </g>
  </g>
</svg>
