<svg xmlns="http://www.w3.org/2000/svg" width="132" height="131" viewBox="0 0 132 131">
  <g id="Group_11" data-name="Group 11" transform="translate(-991 -377)">
    <g id="Group_10" data-name="Group 10" transform="translate(3 -4)">
      <g id="Group_9" data-name="Group 9">
        <g id="Rectangle_23" data-name="Rectangle 23" transform="translate(1054 388)" fill="none" stroke="#2c4179" stroke-width="4">
          <rect width="59" height="59" rx="10" stroke="none"/>
          <rect x="2" y="2" width="55" height="55" rx="8" fill="none"/>
        </g>
        <g id="Rectangle_24" data-name="Rectangle 24" transform="translate(995 447)" fill="none" stroke="#2c4179" stroke-width="4">
          <rect width="59" height="59" rx="10" stroke="none"/>
          <rect x="2" y="2" width="55" height="55" rx="8" fill="none"/>
        </g>
        <g id="Group_1" data-name="Group 1" transform="translate(178 -233)">
          <g id="Group_4" data-name="Group 4" transform="translate(40.261 -174)">
            <rect id="Rectangle_1" data-name="Rectangle 1" width="88.957" height="88.957" rx="5" transform="translate(791 809)" fill="#1799e4"/>
            <g id="Group_1-2" data-name="Group 1" transform="translate(805.826 823.826)">
              <path id="Union_1" data-name="Union 1" d="M25.947,59.306V53.461a23.971,23.971,0,0,1-10.508-4.354l-4.133,4.133L6.065,48,10.2,43.866A23.961,23.961,0,0,1,5.843,33.359H0V25.947H5.843A23.973,23.973,0,0,1,10.2,15.438L6.065,11.305l5.241-5.241L15.438,10.2A23.973,23.973,0,0,1,25.947,5.843V0h7.412V5.843A23.961,23.961,0,0,1,43.866,10.2L48,6.065l5.242,5.241-4.133,4.133a23.971,23.971,0,0,1,4.354,10.508h5.844v7.412H53.461a23.966,23.966,0,0,1-4.354,10.506L53.241,48,48,53.241l-4.133-4.134a23.968,23.968,0,0,1-10.507,4.354v5.844Z" fill="#fff"/>
              <circle id="Ellipse_3" data-name="Ellipse 3" cx="16.679" cy="16.679" r="16.679" transform="translate(12.973 12.973)" fill="#fff"/>
              <path id="Union_2" data-name="Union 2" d="M25.947,59.306V53.461a23.971,23.971,0,0,1-10.508-4.354l-4.133,4.133L6.065,48,10.2,43.866A23.961,23.961,0,0,1,5.843,33.359H0V25.947H5.843A23.973,23.973,0,0,1,10.2,15.438L6.065,11.305l5.241-5.241L15.438,10.2A23.973,23.973,0,0,1,25.947,5.843V0h7.412V5.843A23.961,23.961,0,0,1,43.866,10.2L48,6.065l5.242,5.241-4.133,4.133a23.971,23.971,0,0,1,4.354,10.508h5.844v7.412H53.461a23.966,23.966,0,0,1-4.354,10.506L53.241,48,48,53.241l-4.133-4.134a23.968,23.968,0,0,1-10.507,4.354v5.844Z" fill="#fff"/>
              <circle id="Ellipse_6" data-name="Ellipse 6" cx="16.679" cy="16.679" r="16.679" transform="translate(12.973 12.973)" fill="#1799e4"/>
            </g>
          </g>
          <g id="Group_7" data-name="Group 7" transform="translate(18.982 -195.018)">
            <rect id="Rectangle_1-2" data-name="Rectangle 1" width="43" height="43" rx="21" transform="translate(791.018 809.018)" fill="#fc8106"/>
            <g id="Group_1-3" data-name="Group 1" transform="translate(798.17 816.17)">
              <path id="Union_1-2" data-name="Union 1" d="M12.688,29V26.142a11.722,11.722,0,0,1-5.138-2.129L5.528,26.034,2.966,23.471,4.986,21.45a11.717,11.717,0,0,1-2.129-5.138H0V12.688H2.857A11.723,11.723,0,0,1,4.986,7.549L2.966,5.528,5.528,2.966,7.549,4.986a11.723,11.723,0,0,1,5.138-2.129V0h3.625V2.857A11.717,11.717,0,0,1,21.45,4.986l2.021-2.021,2.563,2.563L24.013,7.549a11.722,11.722,0,0,1,2.129,5.138H29v3.625H26.142a11.719,11.719,0,0,1-2.129,5.137l2.021,2.021-2.563,2.563L21.45,24.013a11.72,11.72,0,0,1-5.138,2.129V29Z" transform="translate(-0.151 -0.151)" fill="#fff"/>
              <circle id="Ellipse_3-2" data-name="Ellipse 3" cx="8.5" cy="8.5" r="8.5" transform="translate(5.849 5.849)" fill="#fff"/>
              <path id="Union_2-2" data-name="Union 2" d="M12.688,29V26.142a11.722,11.722,0,0,1-5.138-2.129L5.528,26.034,2.966,23.471,4.986,21.45a11.717,11.717,0,0,1-2.129-5.138H0V12.688H2.857A11.723,11.723,0,0,1,4.986,7.549L2.966,5.528,5.528,2.966,7.549,4.986a11.723,11.723,0,0,1,5.138-2.129V0h3.625V2.857A11.717,11.717,0,0,1,21.45,4.986l2.021-2.021,2.563,2.563L24.013,7.549a11.722,11.722,0,0,1,2.129,5.138H29v3.625H26.142a11.719,11.719,0,0,1-2.129,5.137l2.021,2.021-2.563,2.563L21.45,24.013a11.72,11.72,0,0,1-5.138,2.129V29Z" transform="translate(-0.151 -0.151)" fill="#fff"/>
              <path id="Path_2" data-name="Path 2" d="M8.5,0A8.5,8.5,0,1,1,0,8.5,8.5,8.5,0,0,1,8.5,0Z" transform="translate(5.849 5.849)" fill="#fc8106"/>
            </g>
          </g>
          <g id="Group_8" data-name="Group 8" transform="translate(29 -122.789)">
            <circle id="Ellipse_7" data-name="Ellipse 7" cx="21.5" cy="21.5" r="21.5" transform="translate(870 824.789)" fill="#fc8106"/>
            <path id="Path_1" data-name="Path 1" d="M843.858,779.1v15.929l27.759-15.3-23.579,6.23Z" transform="translate(36.586 61.11)" fill="#fff"/>
          </g>
        </g>
      </g>
    </g>
  </g>
</svg>
