<svg xmlns="http://www.w3.org/2000/svg" xmlns:xlink="http://www.w3.org/1999/xlink" width="160.782" height="157.765" viewBox="0 0 160.782 157.765">
  <defs>
    <filter id="Path_4" x="4.391" y="5.765" width="152" height="152" filterUnits="userSpaceOnUse">
      <feOffset dy="3" input="SourceAlpha"/>
      <feGaussianBlur stdDeviation="3" result="blur"/>
      <feFlood flood-opacity="0.161"/>
      <feComposite operator="in" in2="blur"/>
      <feComposite in="SourceGraphic"/>
    </filter>
    <filter id="Path_118" x="84.976" y="10.604" width="74.287" height="67.538" filterUnits="userSpaceOnUse">
      <feOffset dx="2" dy="2" input="SourceAlpha"/>
      <feGaussianBlur stdDeviation="1" result="blur-2"/>
      <feFlood flood-opacity="0.161"/>
      <feComposite operator="in" in2="blur-2"/>
      <feComposite in="SourceGraphic"/>
    </filter>
    <filter id="Path_118-2" x="84.976" y="83.227" width="74.287" height="67.538" filterUnits="userSpaceOnUse">
      <feOffset dx="2" dy="2" input="SourceAlpha"/>
      <feGaussianBlur stdDeviation="1" result="blur-3"/>
      <feFlood flood-opacity="0.161"/>
      <feComposite operator="in" in2="blur-3"/>
      <feComposite in="SourceGraphic"/>
    </filter>
    <filter id="Path_118-3" x="5.687" y="10.604" width="74.287" height="67.538" filterUnits="userSpaceOnUse">
      <feOffset dx="2" dy="2" input="SourceAlpha"/>
      <feGaussianBlur stdDeviation="1" result="blur-4"/>
      <feFlood flood-opacity="0.161"/>
      <feComposite operator="in" in2="blur-4"/>
      <feComposite in="SourceGraphic"/>
    </filter>
    <filter id="Path_118-4" x="5.687" y="82.685" width="74.287" height="67.538" filterUnits="userSpaceOnUse">
      <feOffset dx="2" dy="2" input="SourceAlpha"/>
      <feGaussianBlur stdDeviation="1" result="blur-5"/>
      <feFlood flood-opacity="0.161"/>
      <feComposite operator="in" in2="blur-5"/>
      <feComposite in="SourceGraphic"/>
    </filter>
  </defs>
  <g id="Group_54" data-name="Group 54" transform="translate(-697.609 -191.235)">
    <g id="Group_44" data-name="Group 44">
      <g id="Group_43" data-name="Group 43">
        <g transform="matrix(1, 0, 0, 1, 697.61, 191.24)" filter="url(#Path_4)">
          <path id="Path_4-2" data-name="Path 4" d="M67,0A67,67,0,1,1,0,67,67,67,0,0,1,67,0Z" transform="translate(13.39 11.76)" fill="#d5d4d4"/>
        </g>
        <g id="Group_38" data-name="Group 38" transform="translate(431.664 93.991)">
          <g id="Group_42" data-name="Group 42" transform="translate(40.95 -6)">
            <g id="Group_41" data-name="Group 41">
              <g id="Group_40" data-name="Group 40" transform="translate(78.099 -166.347)">
                <g id="Group_40-2" data-name="Group 40" transform="translate(125.747 255.956)">
                  <g id="Group_17" data-name="Group 17" transform="translate(101.956 25.24)">
                    <g id="Group_14" data-name="Group 14" transform="translate(0)">
                      <path id="Subtraction_4" data-name="Subtraction 4" d="M24.4,42.185H17.893V38.74a17.689,17.689,0,0,1-7.12-2.723L8.482,38.3,3.894,33.719l2.192-2.188a17.875,17.875,0,0,1-3.073-7.188H0v-6.5H3.013a17.618,17.618,0,0,1,3.08-7.188L3.9,8.47l4.6-4.586,2.292,2.283a17.69,17.69,0,0,1,7.106-2.719V0h6.5V3.646a17.69,17.69,0,0,1,6.659,2.965L33.8,3.882,38.408,8.47,35.571,11.3a17.668,17.668,0,0,1,2.637,6.543H42.3v6.492H38.2a17.676,17.676,0,0,1-2.638,6.552L38.4,33.713,33.8,38.3l-2.741-2.728A17.729,17.729,0,0,1,24.4,38.538ZM18.887,11.3a4.371,4.371,0,1,0,0-.006Z" transform="translate(18.167 8.899)" fill="#fc8106"/>
                      <path id="Path_113" data-name="Path 113" d="M15.357,0C20.1,0,20.03,5.017,20.03,5.017s-.493,1.8-4.464,1.791S.373,13.436.009,11.285,10.609,0,15.357,0Z" transform="matrix(0.719, -0.695, 0.695, 0.719, 0, 18.47)" fill="#fc8106"/>
                      <path id="Path_113-2" data-name="Path 113" d="M15.357,0C20.1,0,20.03,5.017,20.03,5.017s-.493,1.8-4.464,1.791S.373,13.436.009,11.285,10.609,0,15.357,0Z" transform="matrix(0.719, -0.695, 0.695, 0.719, 0, 18.47)" fill="#fc8106"/>
                      <g transform="matrix(1, 0, 0, 1, -80.81, -11.6)" filter="url(#Path_118)">
                        <path id="Path_118-5" data-name="Path 118" d="M29.933,12.444c26.535,0,33.443,1.152,33.443,28.273S58.425,73.982,31.891,73.982s-36.8-4.729-36.8-31.871S3.4,12.444,29.933,12.444Z" transform="translate(90.89 -0.84)" fill="#4949b2"/>
                      </g>
                    </g>
                    <g id="Group_16" data-name="Group 16" transform="translate(10.461 8.306)">
                      <path id="Path_121" data-name="Path 121" d="M-4.913,55.009Z" transform="translate(4.913 -31.707)" fill="#e86565"/>
                      <path id="Union_2" data-name="Union 2" d="M2.656,20.77a7.616,7.616,0,0,1,.584-2.921A10.222,10.222,0,0,1,.771,6.483,10.632,10.632,0,0,1,10.619-.011a10.632,10.632,0,0,1,9.851,6.494,10.222,10.222,0,0,1-2.465,11.367,7.664,7.664,0,0,1-1.765,8.475,8.1,8.1,0,0,1-8.684,1.652,7.788,7.788,0,0,1-4.892-7.2Z" transform="translate(19.161 5.968)" fill="#fff"/>
                      <path id="Union_3" data-name="Union 3" d="M0,7.448A5.121,5.121,0,0,1,1.595,3.738,3.475,3.475,0,0,1,0,.958c0-2.152,2.378,0,5.31,0s5.315-2.152,5.315,0a3.475,3.475,0,0,1-1.59,2.788,5.1,5.1,0,0,1,.9,6.273,5.36,5.36,0,0,1-5.974,2.453A5.212,5.212,0,0,1,0,7.448Z" transform="translate(24.471 32.275)" fill="#f9ecec"/>
                      <line id="Line_1" data-name="Line 1" x2="10.624" transform="translate(24.471 38.423)" fill="none" stroke="#e9dbdb" stroke-width="1"/>
                      <path id="Union_4" data-name="Union 4" d="M0,7.448A5.121,5.121,0,0,1,1.595,3.738,3.475,3.475,0,0,1,0,.958c0-2.152,2.378,0,5.31,0s5.315-2.152,5.315,0a3.475,3.475,0,0,1-1.59,2.788,5.1,5.1,0,0,1,.9,6.273,5.36,5.36,0,0,1-5.974,2.453A5.212,5.212,0,0,1,0,7.448Z" transform="translate(24.471 32.275)" fill="#fff"/>
                      <line id="Line_6" data-name="Line 6" x2="12.179" transform="translate(23.571 38.423)" fill="none" stroke="#fff" stroke-width="1"/>
                      <path id="Union_5" data-name="Union 5" d="M6.067,0C6.793.09,4.35,1.277,3,4.125s-1.606,7.36-2.337,7.29S-.441,6.363.911,3.5A6.248,6.248,0,0,1,6.067,0Z" transform="translate(20.668 8.738)" fill="#fff"/>
                      <path id="Union_6" data-name="Union 6" d="M.634,0c.735,0,.726,1.14.75,2.57S1.459,5.176.731,5.191.044,4.01.017,2.57-.092,0,.634,0Z" transform="translate(29.086)" fill="#fff"/>
                      <path id="Union_8" data-name="Union 8" d="M.653,5.25c.727.008.7-1.145.713-2.593S1.409.008.689,0,.023,1.189.007,2.644-.063,5.227.653,5.25Z" transform="translate(20.643 9.658) rotate(135)" fill="#fff"/>
                      <path id="Union_9" data-name="Union 9" d="M.653,0c.727-.008.7,1.145.713,2.594S1.409,5.228.691,5.25.023,4.061.007,2.609-.063.008.653,0Z" transform="translate(42.287 5.945) rotate(45)" fill="#fff"/>
                      <path id="Line_7" data-name="Line 7" d="M0,0H12.179" transform="translate(23.571 40.438)" fill="none" stroke="#fff" stroke-width="1"/>
                      <path id="Line_7-2" data-name="Line 7" d="M0,0H12.179" transform="translate(23.571 42.455)" fill="none" stroke="#fff" stroke-width="1"/>
                    </g>
                  </g>
                  <g id="Group_18" data-name="Group 18" transform="translate(101.956 93.778)">
                    <g id="Group_15" data-name="Group 15" transform="translate(0 4.084)">
                      <path id="Path_118-6" data-name="Path 118" d="M29.933,12.444c26.535,0,33.443,1.152,33.443,28.273S58.425,73.982,31.891,73.982s-36.8-4.729-36.8-31.871S3.4,12.444,29.933,12.444Z" transform="translate(10.08 -12.444)" fill="#e86565"/>
                      <path id="Subtraction_4-2" data-name="Subtraction 4" d="M24.4,42.185H17.893V38.74a17.689,17.689,0,0,1-7.12-2.723L8.482,38.3,3.894,33.719l2.192-2.188a17.875,17.875,0,0,1-3.073-7.188H0v-6.5H3.013a17.618,17.618,0,0,1,3.08-7.188L3.9,8.47l4.6-4.586,2.292,2.283a17.69,17.69,0,0,1,7.106-2.719V0h6.5V3.646a17.69,17.69,0,0,1,6.659,2.965L33.8,3.882,38.408,8.47,35.571,11.3a17.668,17.668,0,0,1,2.637,6.543H42.3v6.492H38.2a17.676,17.676,0,0,1-2.638,6.552L38.4,33.713,33.8,38.3l-2.741-2.728A17.729,17.729,0,0,1,24.4,38.538ZM18.887,11.3a4.371,4.371,0,1,0,0-.006Z" transform="translate(18.167 8.899)" fill="#e5e898"/>
                      <path id="Path_113-3" data-name="Path 113" d="M15.357,0C20.1,0,20.03,5.017,20.03,5.017s-.493,1.8-4.464,1.791S.373,13.436.009,11.285,10.609,0,15.357,0Z" transform="matrix(0.719, -0.695, 0.695, 0.719, 0, 18.47)" fill="#eb8f8f"/>
                      <g transform="matrix(1, 0, 0, 1, -80.81, -84.23)" filter="url(#Path_118-2)">
                        <path id="Path_118-7" data-name="Path 118" d="M29.933,12.444c26.535,0,33.443,1.152,33.443,28.273S58.425,73.982,31.891,73.982s-36.8-4.729-36.8-31.871S3.4,12.444,29.933,12.444Z" transform="translate(90.89 71.78)" fill="#fc8106"/>
                      </g>
                    </g>
                    <text id="_" data-name="$" transform="translate(31.364 47)" fill="#fff" font-size="41" font-family="SegoeUI-Bold, Segoe UI" font-weight="700"><tspan x="0" y="0">?</tspan></text>
                  </g>
                  <g id="Group_29" data-name="Group 29" transform="translate(22.667 22.704)">
                    <path id="Path_118-8" data-name="Path 118" d="M29.933,12.444c26.535,0,33.443,1.152,33.443,28.273S58.425,73.982,31.891,73.982s-36.8-4.729-36.8-31.871S3.4,12.444,29.933,12.444Z" transform="translate(10.08 -9.909)" fill="#e86565"/>
                    <path id="Subtraction_4-3" data-name="Subtraction 4" d="M24.4,42.185H17.893V38.74a17.689,17.689,0,0,1-7.12-2.723L8.482,38.3,3.894,33.719l2.192-2.188a17.875,17.875,0,0,1-3.073-7.188H0v-6.5H3.013a17.618,17.618,0,0,1,3.08-7.188L3.9,8.47l4.6-4.586,2.292,2.283a17.69,17.69,0,0,1,7.106-2.719V0h6.5V3.646a17.69,17.69,0,0,1,6.659,2.965L33.8,3.882,38.408,8.47,35.571,11.3a17.668,17.668,0,0,1,2.637,6.543H42.3v6.492H38.2a17.676,17.676,0,0,1-2.638,6.552L38.4,33.713,33.8,38.3l-2.741-2.728A17.729,17.729,0,0,1,24.4,38.538ZM18.887,11.3a4.371,4.371,0,1,0,0-.006Z" transform="translate(18.167 11.434)" fill="#e5e898"/>
                    <path id="Path_113-4" data-name="Path 113" d="M15.357,0C20.1,0,20.03,5.017,20.03,5.017s-.493,1.8-4.464,1.791S.373,13.436.009,11.285,10.609,0,15.357,0Z" transform="matrix(0.719, -0.695, 0.695, 0.719, 0, 21.005)" fill="#eb8f8f"/>
                    <g transform="matrix(1, 0, 0, 1, -1.52, -9.07)" filter="url(#Path_118-3)">
                      <path id="Path_118-9" data-name="Path 118" d="M29.933,12.444c26.535,0,33.443,1.152,33.443,28.273S58.425,73.982,31.891,73.982s-36.8-4.729-36.8-31.871S3.4,12.444,29.933,12.444Z" transform="translate(11.6 -0.84)" fill="#de4545"/>
                    </g>
                    <text id="_2" data-name="$" transform="translate(26.701 46)" fill="#fff" font-size="42" font-family="SegoeUI-Bold, Segoe UI" font-weight="700"><tspan x="0" y="0">$</tspan></text>
                  </g>
                  <g id="Group_20" data-name="Group 20" transform="translate(22.667 97.32)">
                    <g id="Group_2" data-name="Group 2" transform="translate(0 0)">
                      <path id="Path_118-10" data-name="Path 118" d="M29.933,12.444c26.535,0,33.443,1.152,33.443,28.273S58.425,73.982,31.891,73.982s-36.8-4.729-36.8-31.871S3.4,12.444,29.933,12.444Z" transform="translate(10.08 -12.444)" fill="#e86565"/>
                      <path id="Subtraction_4-4" data-name="Subtraction 4" d="M24.4,42.185H17.893V38.74a17.689,17.689,0,0,1-7.12-2.723L8.482,38.3,3.894,33.719l2.192-2.188a17.875,17.875,0,0,1-3.073-7.188H0v-6.5H3.013a17.618,17.618,0,0,1,3.08-7.188L3.9,8.47l4.6-4.586,2.292,2.283a17.69,17.69,0,0,1,7.106-2.719V0h6.5V3.646a17.69,17.69,0,0,1,6.659,2.965L33.8,3.882,38.408,8.47,35.571,11.3a17.668,17.668,0,0,1,2.637,6.543H42.3v6.492H38.2a17.676,17.676,0,0,1-2.638,6.552L38.4,33.713,33.8,38.3l-2.741-2.728A17.729,17.729,0,0,1,24.4,38.538ZM18.887,11.3a4.371,4.371,0,1,0,0-.006Z" transform="translate(18.167 8.899)" fill="#e5e898"/>
                      <path id="Path_113-5" data-name="Path 113" d="M15.357,0C20.1,0,20.03,5.017,20.03,5.017s-.493,1.8-4.464,1.791S.373,13.436.009,11.285,10.609,0,15.357,0Z" transform="matrix(0.719, -0.695, 0.695, 0.719, 0, 18.47)" fill="#eb8f8f"/>
                      <g transform="matrix(1, 0, 0, 1, -1.52, -83.68)" filter="url(#Path_118-4)">
                        <path id="Path_118-11" data-name="Path 118" d="M29.933,12.444c26.535,0,33.443,1.152,33.443,28.273S58.425,73.982,31.891,73.982s-36.8-4.729-36.8-31.871S3.4,12.444,29.933,12.444Z" transform="translate(11.6 71.24)" fill="#1799e4"/>
                      </g>
                      <path id="Subtraction_4-5" data-name="Subtraction 4" d="M21.872,37.819H16.041V34.73a15.858,15.858,0,0,1-6.383-2.442L7.6,34.338,3.491,30.229l1.965-1.962A16.024,16.024,0,0,1,2.7,21.824H0V16H2.7A15.8,15.8,0,0,1,5.462,9.556L3.493,7.594,7.615,3.483,9.671,5.53a15.859,15.859,0,0,1,6.37-2.437V0h5.831V3.271a15.859,15.859,0,0,1,5.972,2.658L30.3,3.476l4.134,4.118L31.9,10.131a15.839,15.839,0,0,1,2.364,5.864h3.663v5.821H34.253a15.846,15.846,0,0,1-2.365,5.874l2.543,2.533L30.3,34.334l-2.453-2.445a15.889,15.889,0,0,1-5.972,2.661Zm-4.94-27.689a9.455,9.455,0,1,0,6.7,2.762A9.455,9.455,0,0,0,16.933,10.129Z" transform="translate(20.077 11.621)" fill="#fff"/>
                    </g>
                  </g>
                </g>
              </g>
            </g>
          </g>
        </g>
        <path id="Path_5" data-name="Path 5" d="M0,0H155.782" transform="translate(700.109 268.652)" fill="none" stroke="#fff" stroke-linecap="round" stroke-width="5"/>
        <path id="Path_6" data-name="Path 6" d="M0,0H152.53" transform="translate(778 193.735) rotate(90)" fill="none" stroke="#fff" stroke-linecap="round" stroke-width="5"/>
      </g>
    </g>
  </g>
</svg>
