<svg xmlns="http://www.w3.org/2000/svg" xmlns:xlink="http://www.w3.org/1999/xlink" width="153.326" height="157.428" viewBox="0 0 153.326 157.428">
  <defs>
    <filter id="Subtraction_4" x="11.326" y="6.784" width="63.406" height="63.339" filterUnits="userSpaceOnUse">
      <feOffset dx="4" input="SourceAlpha"/>
      <feGaussianBlur stdDeviation="2" result="blur"/>
      <feFlood flood-opacity="0.161"/>
      <feComposite operator="in" in2="blur"/>
      <feComposite in="SourceGraphic"/>
    </filter>
    <filter id="Subtraction_4-2" x="66.477" y="91.27" width="66.208" height="66.158" filterUnits="userSpaceOnUse">
      <feOffset dx="4" input="SourceAlpha"/>
      <feGaussianBlur stdDeviation="2" result="blur-2"/>
      <feFlood flood-opacity="0.161"/>
      <feComposite operator="in" in2="blur-2"/>
      <feComposite in="SourceGraphic"/>
    </filter>
    <filter id="Subtraction_4-3" x="19.124" y="69.2" width="71.717" height="71.564" filterUnits="userSpaceOnUse">
      <feOffset dx="4" input="SourceAlpha"/>
      <feGaussianBlur stdDeviation="2" result="blur-3"/>
      <feFlood flood-opacity="0.161"/>
      <feComposite operator="in" in2="blur-3"/>
      <feComposite in="SourceGraphic"/>
    </filter>
    <filter id="Subtraction_4-4" x="11.326" y="6.784" width="63.406" height="63.339" filterUnits="userSpaceOnUse">
      <feOffset dx="4" input="SourceAlpha"/>
      <feGaussianBlur stdDeviation="2" result="blur-4"/>
      <feFlood flood-opacity="0.161"/>
      <feComposite operator="in" in2="blur-4"/>
      <feComposite in="SourceGraphic"/>
    </filter>
    <filter id="Subtraction_4-5" x="66.477" y="91.27" width="66.208" height="66.158" filterUnits="userSpaceOnUse">
      <feOffset dx="4" input="SourceAlpha"/>
      <feGaussianBlur stdDeviation="2" result="blur-5"/>
      <feFlood flood-opacity="0.161"/>
      <feComposite operator="in" in2="blur-5"/>
      <feComposite in="SourceGraphic"/>
    </filter>
    <filter id="Subtraction_4-6" x="19.124" y="69.2" width="71.717" height="71.564" filterUnits="userSpaceOnUse">
      <feOffset dx="4" input="SourceAlpha"/>
      <feGaussianBlur stdDeviation="2" result="blur-6"/>
      <feFlood flood-opacity="0.161"/>
      <feComposite operator="in" in2="blur-6"/>
      <feComposite in="SourceGraphic"/>
    </filter>
    <filter id="Subtraction_4-7" x="63.629" y="0" width="77.034" height="76.874" filterUnits="userSpaceOnUse">
      <feOffset dx="4" input="SourceAlpha"/>
      <feGaussianBlur stdDeviation="2" result="blur-7"/>
      <feFlood flood-opacity="0.161"/>
      <feComposite operator="in" in2="blur-7"/>
      <feComposite in="SourceGraphic"/>
    </filter>
    <filter id="Subtraction_4-8" x="63.629" y="0" width="77.034" height="76.874" filterUnits="userSpaceOnUse">
      <feOffset dx="4" input="SourceAlpha"/>
      <feGaussianBlur stdDeviation="2" result="blur-8"/>
      <feFlood flood-opacity="0.161"/>
      <feComposite operator="in" in2="blur-8"/>
      <feComposite in="SourceGraphic"/>
    </filter>
    <filter id="Subtraction_4-9" x="37.029" y="31.703" width="87.178" height="86.993" filterUnits="userSpaceOnUse">
      <feOffset dx="4" input="SourceAlpha"/>
      <feGaussianBlur stdDeviation="2" result="blur-9"/>
      <feFlood flood-opacity="0.161"/>
      <feComposite operator="in" in2="blur-9"/>
      <feComposite in="SourceGraphic"/>
    </filter>
    <filter id="Subtraction_4-10" x="37.029" y="31.703" width="87.178" height="86.993" filterUnits="userSpaceOnUse">
      <feOffset dx="4" input="SourceAlpha"/>
      <feGaussianBlur stdDeviation="2" result="blur-10"/>
      <feFlood flood-opacity="0.161"/>
      <feComposite operator="in" in2="blur-10"/>
      <feComposite in="SourceGraphic"/>
    </filter>
  </defs>
  <g id="Group_4" data-name="Group 4" transform="translate(-761.281 -880.166)">
    <g id="Group_3" data-name="Group 3" transform="translate(164 134.166)">
      <g id="Group_1" data-name="Group 1" transform="translate(-278.393 92.1)">
        <path id="Path_1" data-name="Path 1" d="M44.684,2.28C82.791,2.28,138,29.549,138,66s-49.6,68.949-87.711,68.949S0,102.451,0,66,6.576,2.28,44.684,2.28Z" transform="translate(884 662)" fill="#f2f2f2"/>
        <path id="Path_2" data-name="Path 2" d="M10.862,2.28c9.264,0,22.684,4.42,22.684,10.327S21.489,23.782,12.225,23.782,0,18.515,0,12.607,1.6,2.28,10.862,2.28Z" transform="translate(875.674 708.832)" fill="#e86565"/>
        <path id="Path_3" data-name="Path 3" d="M28.253,2.28C16.715,2.28,0,7.784,0,15.142S15.018,29.06,26.556,29.06,41.782,22.5,41.782,15.142,39.791,2.28,28.253,2.28Z" transform="translate(987.218 730.335)" fill="#e86565"/>
        <g id="Group_1-2" data-name="Group 1" transform="translate(-602.93 18.9)">
          <g id="Group_9" data-name="Group 9" transform="translate(783.834 46.069)">
            <g id="Group_8" data-name="Group 8">
              <g id="Group_7" data-name="Group 7">
                <g id="Group_6" data-name="Group 6">
                  <g id="Group_5" data-name="Group 5" transform="translate(61.816 108.681)">
                    <g transform="matrix(1, 0, 0, 1, 632.95, 480.25)" filter="url(#Subtraction_4)">
                      <path id="Subtraction_4-11" data-name="Subtraction 4" d="M23.55,40.72H17.272V37.394A17.074,17.074,0,0,1,10.4,34.765L8.187,36.972,3.759,32.548l2.116-2.112A17.253,17.253,0,0,1,2.909,23.5H0V17.227H2.909a17.006,17.006,0,0,1,2.972-6.938L3.761,8.177,8.2,3.75l2.213,2.2a17.075,17.075,0,0,1,6.859-2.624V0H23.55V3.52a17.075,17.075,0,0,1,6.43,2.862l2.648-2.635,4.444,4.43-2.737,2.731a17.054,17.054,0,0,1,2.545,6.313h3.944v6.267H36.88a17.062,17.062,0,0,1-2.546,6.324l2.739,2.728-4.446,4.427-2.646-2.633a17.113,17.113,0,0,1-6.43,2.865ZM18.232,10.9a10.18,10.18,0,1,0,7.212,2.974A10.18,10.18,0,0,0,18.232,10.9Z" transform="translate(13.33 25.44) rotate(-18.07)" fill="#f2f2f2"/>
                    </g>
                    <g transform="matrix(1, 0, 0, 1, 632.95, 480.25)" filter="url(#Subtraction_4-2)">
                      <path id="Subtraction_4-12" data-name="Subtraction 4" d="M23.55,40.72H17.272V37.394A17.074,17.074,0,0,1,10.4,34.765L8.187,36.972,3.759,32.548l2.116-2.112A17.253,17.253,0,0,1,2.909,23.5H0V17.227H2.909a17.006,17.006,0,0,1,2.972-6.938L3.761,8.177,8.2,3.75l2.213,2.2a17.075,17.075,0,0,1,6.859-2.624V0H23.55V3.52a17.075,17.075,0,0,1,6.43,2.862l2.648-2.635,4.444,4.43-2.737,2.731a17.054,17.054,0,0,1,2.545,6.313h3.944v6.267H36.88a17.062,17.062,0,0,1-2.546,6.324l2.739,2.728-4.446,4.427-2.646-2.633a17.113,17.113,0,0,1-6.43,2.865ZM18.232,10.9a10.18,10.18,0,1,0,7.212,2.974A10.18,10.18,0,0,0,18.232,10.9Z" transform="translate(85.69 97.27) rotate(25)" fill="#f2f2f2"/>
                    </g>
                    <g transform="matrix(1, 0, 0, 1, 632.95, 480.25)" filter="url(#Subtraction_4-3)">
                      <path id="Subtraction_4-13" data-name="Subtraction 4" d="M33.777,58.4H24.772V53.63a24.489,24.489,0,0,1-9.857-3.771l-3.173,3.165L5.391,46.682l3.034-3.03A24.745,24.745,0,0,1,4.172,33.7H0V24.707H4.172a24.391,24.391,0,0,1,4.263-9.951l-3.04-3.029,6.366-6.349,3.174,3.161a24.49,24.49,0,0,1,9.837-3.764V0h9.005V5.049A24.49,24.49,0,0,1,43,9.153l3.8-3.779,6.374,6.353-3.926,3.917A24.46,24.46,0,0,1,52.9,24.7h5.657v8.988H52.9a24.471,24.471,0,0,1-3.651,9.07l3.928,3.912L46.8,53.019,43,49.242a24.544,24.544,0,0,1-9.223,4.109ZM26.149,15.637A14.6,14.6,0,1,0,36.493,19.9a14.6,14.6,0,0,0-10.344-4.263Z" transform="translate(22.3 75.2) rotate(1.15)" fill="#f2f2f2"/>
                    </g>
                    <g transform="matrix(1, 0, 0, 1, 632.95, 480.25)" filter="url(#Subtraction_4-4)">
                      <path id="Subtraction_4-14" data-name="Subtraction 4" d="M23.55,40.72H17.272V37.394A17.074,17.074,0,0,1,10.4,34.765L8.187,36.972,3.759,32.548l2.116-2.112A17.253,17.253,0,0,1,2.909,23.5H0V17.227H2.909a17.006,17.006,0,0,1,2.972-6.938L3.761,8.177,8.2,3.75l2.213,2.2a17.075,17.075,0,0,1,6.859-2.624V0H23.55V3.52a17.075,17.075,0,0,1,6.43,2.862l2.648-2.635,4.444,4.43-2.737,2.731a17.054,17.054,0,0,1,2.545,6.313h3.944v6.267H36.88a17.062,17.062,0,0,1-2.546,6.324l2.739,2.728-4.446,4.427-2.646-2.633a17.113,17.113,0,0,1-6.43,2.865ZM18.232,10.9a10.18,10.18,0,1,0,7.212,2.974A10.18,10.18,0,0,0,18.232,10.9Z" transform="translate(13.33 25.44) rotate(-18.07)" fill="#1799e4"/>
                    </g>
                    <g transform="matrix(1, 0, 0, 1, 632.95, 480.25)" filter="url(#Subtraction_4-5)">
                      <path id="Subtraction_4-15" data-name="Subtraction 4" d="M23.55,40.72H17.272V37.394A17.074,17.074,0,0,1,10.4,34.765L8.187,36.972,3.759,32.548l2.116-2.112A17.253,17.253,0,0,1,2.909,23.5H0V17.227H2.909a17.006,17.006,0,0,1,2.972-6.938L3.761,8.177,8.2,3.75l2.213,2.2a17.075,17.075,0,0,1,6.859-2.624V0H23.55V3.52a17.075,17.075,0,0,1,6.43,2.862l2.648-2.635,4.444,4.43-2.737,2.731a17.054,17.054,0,0,1,2.545,6.313h3.944v6.267H36.88a17.062,17.062,0,0,1-2.546,6.324l2.739,2.728-4.446,4.427-2.646-2.633a17.113,17.113,0,0,1-6.43,2.865ZM18.232,10.9a10.18,10.18,0,1,0,7.212,2.974A10.18,10.18,0,0,0,18.232,10.9Z" transform="translate(85.69 97.27) rotate(25)" fill="#1799e4"/>
                    </g>
                    <g transform="matrix(1, 0, 0, 1, 632.95, 480.25)" filter="url(#Subtraction_4-6)">
                      <path id="Subtraction_4-16" data-name="Subtraction 4" d="M33.777,58.4H24.772V53.63a24.489,24.489,0,0,1-9.857-3.771l-3.173,3.165L5.391,46.682l3.034-3.03A24.745,24.745,0,0,1,4.172,33.7H0V24.707H4.172a24.391,24.391,0,0,1,4.263-9.951l-3.04-3.029,6.366-6.349,3.174,3.161a24.49,24.49,0,0,1,9.837-3.764V0h9.005V5.049A24.49,24.49,0,0,1,43,9.153l3.8-3.779,6.374,6.353-3.926,3.917A24.46,24.46,0,0,1,52.9,24.7h5.657v8.988H52.9a24.471,24.471,0,0,1-3.651,9.07l3.928,3.912L46.8,53.019,43,49.242a24.544,24.544,0,0,1-9.223,4.109ZM26.149,15.637A14.6,14.6,0,1,0,36.493,19.9a14.6,14.6,0,0,0-10.344-4.263Z" transform="translate(22.3 75.2) rotate(1.15)" fill="#fc8106"/>
                    </g>
                    <g transform="matrix(1, 0, 0, 1, 632.95, 480.25)" filter="url(#Subtraction_4-7)">
                      <path id="Subtraction_4-17" data-name="Subtraction 4" d="M36.787,63.607H26.98V58.412a26.671,26.671,0,0,1-10.735-4.107l-3.456,3.447-6.917-6.91,3.3-3.3A26.95,26.95,0,0,1,4.544,36.7H0V26.9H4.544A26.564,26.564,0,0,1,9.186,16.071l-3.311-3.3,6.933-6.914L16.266,9.3A26.672,26.672,0,0,1,26.98,5.2V0h9.808V5.5A26.672,26.672,0,0,1,46.832,9.97l4.137-4.116,6.942,6.919-4.276,4.266A26.64,26.64,0,0,1,57.61,26.9h6.16v9.789H57.609a26.651,26.651,0,0,1-3.977,9.878l4.278,4.261-6.944,6.914-4.133-4.113A26.731,26.731,0,0,1,36.788,58.1ZM28.479,17.031a15.9,15.9,0,1,0,11.265,4.645,15.9,15.9,0,0,0-11.265-4.645Z" transform="translate(66.91 6) rotate(1.15)" fill="#f2f2f2"/>
                    </g>
                    <g transform="matrix(1, 0, 0, 1, 632.95, 480.25)" filter="url(#Subtraction_4-8)">
                      <path id="Subtraction_4-18" data-name="Subtraction 4" d="M36.787,63.607H26.98V58.412a26.671,26.671,0,0,1-10.735-4.107l-3.456,3.447-6.917-6.91,3.3-3.3A26.95,26.95,0,0,1,4.544,36.7H0V26.9H4.544A26.564,26.564,0,0,1,9.186,16.071l-3.311-3.3,6.933-6.914L16.266,9.3A26.672,26.672,0,0,1,26.98,5.2V0h9.808V5.5A26.672,26.672,0,0,1,46.832,9.97l4.137-4.116,6.942,6.919-4.276,4.266A26.64,26.64,0,0,1,57.61,26.9h6.16v9.789H57.609a26.651,26.651,0,0,1-3.977,9.878l4.278,4.261-6.944,6.914-4.133-4.113A26.731,26.731,0,0,1,36.788,58.1ZM28.479,17.031a15.9,15.9,0,1,0,11.265,4.645,15.9,15.9,0,0,0-11.265-4.645Z" transform="translate(66.91 6) rotate(1.15)" fill="#fc8106"/>
                    </g>
                    <g transform="matrix(1, 0, 0, 1, 632.95, 480.25)" filter="url(#Subtraction_4-9)">
                      <path id="Subtraction_4-19" data-name="Subtraction 4" d="M42.525,73.528H31.188V67.523a30.831,30.831,0,0,1-12.409-4.748l-4,3.985-8-7.988L10.6,54.958a31.154,31.154,0,0,1-5.35-12.533H0V31.1H5.253a30.707,30.707,0,0,1,5.366-12.518L6.791,14.763l8.014-7.992,4,3.98a30.832,30.832,0,0,1,12.385-4.74V0H42.526V6.358a30.832,30.832,0,0,1,11.611,5.167l4.782-4.758,8.025,8L62,19.7a30.8,30.8,0,0,1,4.6,11.4h7.121V42.412H66.595A30.808,30.808,0,0,1,62,53.83l4.945,4.926-8.027,7.992-4.778-4.755a30.9,30.9,0,0,1-11.612,5.168Zm-9.6-53.841a18.38,18.38,0,1,0,13.022,5.37,18.38,18.38,0,0,0-13.022-5.37Z" transform="translate(40.5 37.7) rotate(1.15)" fill="#5665af"/>
                    </g>
                    <g transform="matrix(1, 0, 0, 1, 632.95, 480.25)" filter="url(#Subtraction_4-10)">
                      <path id="Subtraction_4-20" data-name="Subtraction 4" d="M42.525,73.528H31.188V67.523a30.831,30.831,0,0,1-12.409-4.748l-4,3.985-8-7.988L10.6,54.958a31.154,31.154,0,0,1-5.35-12.533H0V31.1H5.253a30.707,30.707,0,0,1,5.366-12.518L6.791,14.763l8.014-7.992,4,3.98a30.832,30.832,0,0,1,12.385-4.74V0H42.526V6.358a30.832,30.832,0,0,1,11.611,5.167l4.782-4.758,8.025,8L62,19.7a30.8,30.8,0,0,1,4.6,11.4h7.121V42.412H66.595A30.808,30.808,0,0,1,62,53.83l4.945,4.926-8.027,7.992-4.778-4.755a30.9,30.9,0,0,1-11.612,5.168Zm-9.6-53.841a18.38,18.38,0,1,0,13.022,5.37,18.38,18.38,0,0,0-13.022-5.37Z" transform="translate(40.5 37.7) rotate(1.15)" fill="#5665af"/>
                    </g>
                  </g>
                </g>
              </g>
            </g>
          </g>
        </g>
        <path id="Path_4" data-name="Path 4" d="M18.859,2.28C11.156,2.28,0,5.953,0,10.866s10.024,9.291,17.73,9.291,10.16-4.381,10.16-9.291S26.56,2.28,18.859,2.28Z" transform="translate(990.337 736.335)" fill="#eb8f8f"/>
        <path id="Path_7" data-name="Path 7" d="M6.812,2.28c5.811,0,14.227,2.771,14.227,6.477s-7.562,7.009-13.375,7.009S0,12.461,0,8.757,1,2.28,6.812,2.28Z" transform="translate(884.447 713.849)" fill="#e97979"/>
      </g>
    </g>
  </g>
</svg>
