<svg xmlns="http://www.w3.org/2000/svg" xmlns:xlink="http://www.w3.org/1999/xlink" width="163.5" height="108" viewBox="0 0 163.5 108">
  <defs>
    <filter id="Rectangle_17" x="91.5" y="19.5" width="72" height="33" filterUnits="userSpaceOnUse">
      <feOffset dy="1" input="SourceAlpha"/>
      <feGaussianBlur stdDeviation="1.5" result="blur"/>
      <feFlood flood-opacity="0.161"/>
      <feComposite operator="in" in2="blur"/>
      <feComposite in="SourceGraphic"/>
    </filter>
    <filter id="Rectangle_18" x="91.5" y="47" width="72" height="33" filterUnits="userSpaceOnUse">
      <feOffset dy="1" input="SourceAlpha"/>
      <feGaussianBlur stdDeviation="1.5" result="blur-2"/>
      <feFlood flood-opacity="0.161"/>
      <feComposite operator="in" in2="blur-2"/>
      <feComposite in="SourceGraphic"/>
    </filter>
    <filter id="Rectangle_19" x="91.5" y="75" width="72" height="33" filterUnits="userSpaceOnUse">
      <feOffset dy="1" input="SourceAlpha"/>
      <feGaussianBlur stdDeviation="1.5" result="blur-3"/>
      <feFlood flood-opacity="0.161"/>
      <feComposite operator="in" in2="blur-3"/>
      <feComposite in="SourceGraphic"/>
    </filter>
  </defs>
  <g id="Group_15" data-name="Group 15" transform="translate(-956 -156)">
    <g id="Group_11" data-name="Group 11" transform="translate(-39 -224)">
      <g id="Group_10" data-name="Group 10" transform="translate(3 -4)">
        <g id="Group_9" data-name="Group 9">
          <g id="Group_1" data-name="Group 1" transform="translate(178 -233)">
            <g id="Group_4" data-name="Group 4" transform="translate(40.261 -174)">
              <path id="Rectangle_1" data-name="Rectangle 1" d="M5,0H83.957a5,5,0,0,1,5,5V83.957a5,5,0,0,1-5,5H5a5,5,0,0,1-5-5V5A5,5,0,0,1,5,0Z" transform="translate(791 809)" fill="#273c75"/>
              <g id="Group_1-2" data-name="Group 1" transform="translate(805.826 823.826)">
                <path id="Union_1" data-name="Union 1" d="M25.947,59.306V53.461a23.971,23.971,0,0,1-10.508-4.354L11.306,53.24,6.065,48,10.2,43.866A23.961,23.961,0,0,1,5.843,33.359H0V25.947H5.843A23.973,23.973,0,0,1,10.2,15.438L6.065,11.305l5.241-5.241L15.438,10.2A23.973,23.973,0,0,1,25.947,5.843V0h7.412V5.843A23.961,23.961,0,0,1,43.866,10.2L48,6.065l5.242,5.241-4.133,4.133a23.971,23.971,0,0,1,4.354,10.508h5.844v7.412H53.461a23.966,23.966,0,0,1-4.354,10.506L53.241,48,48,53.241l-4.133-4.134A23.968,23.968,0,0,1,33.36,53.461v5.844Z" fill="#fff"/>
                <circle id="Ellipse_3" data-name="Ellipse 3" cx="16.679" cy="16.679" r="16.679" transform="translate(12.973 12.973)" fill="#fff"/>
                <path id="Union_2" data-name="Union 2" d="M25.947,59.306V53.461a23.971,23.971,0,0,1-10.508-4.354L11.306,53.24,6.065,48,10.2,43.866A23.961,23.961,0,0,1,5.843,33.359H0V25.947H5.843A23.973,23.973,0,0,1,10.2,15.438L6.065,11.305l5.241-5.241L15.438,10.2A23.973,23.973,0,0,1,25.947,5.843V0h7.412V5.843A23.961,23.961,0,0,1,43.866,10.2L48,6.065l5.242,5.241-4.133,4.133a23.971,23.971,0,0,1,4.354,10.508h5.844v7.412H53.461a23.966,23.966,0,0,1-4.354,10.506L53.241,48,48,53.241l-4.133-4.134A23.968,23.968,0,0,1,33.36,53.461v5.844Z" fill="#fff"/>
                <circle id="Ellipse_6" data-name="Ellipse 6" cx="16.679" cy="16.679" r="16.679" transform="translate(12.973 12.973)" fill="#273c75"/>
              </g>
            </g>
            <g id="Group_8" data-name="Group 8" transform="translate(29 -122.789)">
              <path id="Ellipse_7" data-name="Ellipse 7" d="M21.5,0A21.5,21.5,0,1,1,0,21.5,21.5,21.5,0,0,1,21.5,0Z" transform="translate(785 739.789)" fill="#ec2024"/>
              <path id="Path_1" data-name="Path 1" d="M843.858,779.1v15.929l27.759-15.3-23.579,6.23Z" transform="translate(-48.414 -23.89)" fill="#fff"/>
            </g>
          </g>
        </g>
      </g>
    </g>
    <g transform="matrix(1, 0, 0, 1, 956, 156)" filter="url(#Rectangle_17)">
      <rect id="Rectangle_17-2" data-name="Rectangle 17" width="63" height="24" rx="5" transform="translate(96 23)" fill="#f2f2f2"/>
    </g>
    <g id="Group_12" data-name="Group 12" transform="translate(1051.218 244.8)">
      <text id="Truck_Driver" data-name="Truck Driver" transform="translate(4 -46.3)" fill="#ec2024" font-size="21" font-family="SegoeUI-Bold, Segoe UI" font-weight="700"><tspan x="0" y="0">Tools</tspan></text>
    </g>
    <g transform="matrix(1, 0, 0, 1, 956, 156)" filter="url(#Rectangle_18)">
      <rect id="Rectangle_18-2" data-name="Rectangle 18" width="63" height="24" rx="5" transform="translate(96 50.5)" fill="#f2f2f2"/>
    </g>
    <g id="Group_12-2" data-name="Group 12" transform="translate(1051.218 272.3)">
      <text id="Truck_Driver-2" data-name="Truck Driver" transform="translate(4 -46.3)" fill="#ec2024" font-size="21" font-family="SegoeUI-Bold, Segoe UI" font-weight="700"><tspan x="0" y="0">Miles</tspan></text>
    </g>
    <g transform="matrix(1, 0, 0, 1, 956, 156)" filter="url(#Rectangle_19)">
      <rect id="Rectangle_19-2" data-name="Rectangle 19" width="63" height="24" rx="5" transform="translate(96 78.5)" fill="#f2f2f2"/>
    </g>
    <g id="Group_12-3" data-name="Group 12" transform="translate(1051.218 300.3)">
      <text id="Truck_Driver-3" data-name="Truck Driver" transform="translate(4 -46.3)" fill="#ec2024" font-size="21" font-family="SegoeUI-Bold, Segoe UI" font-weight="700"><tspan x="0" y="0">Load</tspan></text>
    </g>
  </g>
</svg>
