<svg xmlns="http://www.w3.org/2000/svg" xmlns:xlink="http://www.w3.org/1999/xlink" width="250" height="314.834" viewBox="0 0 250 314.834">
  <defs>
    <filter id="Path_20" x="24.753" y="127.745" width="30.747" height="55.285" filterUnits="userSpaceOnUse">
      <feOffset dy="-1" input="SourceAlpha"/>
      <feGaussianBlur stdDeviation="0.5" result="blur"/>
      <feFlood flood-opacity="0.161"/>
      <feComposite operator="in" in2="blur"/>
      <feComposite in="SourceGraphic"/>
    </filter>
    <filter id="Path_25" x="193.753" y="128.635" width="30.747" height="55.285" filterUnits="userSpaceOnUse">
      <feOffset dy="-1" input="SourceAlpha"/>
      <feGaussianBlur stdDeviation="0.5" result="blur-2"/>
      <feFlood flood-opacity="0.161"/>
      <feComposite operator="in" in2="blur-2"/>
      <feComposite in="SourceGraphic"/>
    </filter>
  </defs>
  <g id="Group_19" data-name="Group 19" transform="translate(-1401 -557.256)">
    <g id="Group_17" data-name="Group 17" transform="translate(154 397)">
      <g id="Group_14" data-name="Group 14">
        <path id="Union_1" data-name="Union 1" d="M-216,206.068a9,9,0,0,1-9-9V167.943a9,9,0,0,1,7-8.777V95.1a4.035,4.035,0,0,1,.04-.568l-.04-.016.06-.113a3.992,3.992,0,0,1,1.171-2.19l13.7-25.633,3.323,11.373L-209,96.218v62.947a9,9,0,0,1,7,8.777v29.125a9,9,0,0,1-9,9Z" transform="translate(1664.372 93.677)" fill="#fff"/>
        <path id="Union_2" data-name="Union 2" d="M8.231,113.855a3.992,3.992,0,0,1-1.171-2.19L7,111.552l.04-.016a4.029,4.029,0,0,1-.04-.568V46.9a9,9,0,0,1-7-8.777V9A9,9,0,0,1,9,0h5a9,9,0,0,1,9,9V38.125A9,9,0,0,1,16,46.9v62.947l9.256,18.266-3.323,11.373Z" transform="translate(1303.628 300.744) rotate(180)" fill="#fff"/>
        <rect id="Rectangle_42" data-name="Rectangle 42" width="250" height="47" rx="3" transform="translate(1247 393)" fill="#c9cbd2"/>
        <path id="Path_18" data-name="Path 18" d="M11.906,7.3c4.731-4.226,6.464-4.138,13.3-5.182C36.367.416,52.421,0,52.421,0V46.829H0S-1.2,19.011,11.906,7.3Z" transform="translate(1249.579 349.171)" fill="#a72020"/>
        <path id="Path_19" data-name="Path 19" d="M40.489,7.3c-4.731-4.226-6.464-4.138-13.3-5.182C16.028.416-.026,0-.026,0V46.829H52.392S53.593,19.011,40.489,7.3Z" transform="translate(1441.579 349.171)" fill="#a72020"/>
        <g transform="matrix(1, 0, 0, 1, 1247, 160.26)" filter="url(#Path_20)">
          <path id="Path_20-2" data-name="Path 20" d="M0-.279S7.524-3.246,14.46-3.246A35.552,35.552,0,0,1,27.747-.279V47.253A55.478,55.478,0,0,1,14.46,49.039,72.992,72.992,0,0,1,0,47.253Z" transform="translate(26.25 133.49)" fill="#fff"/>
        </g>
        <g id="Rectangle_44" data-name="Rectangle 44" transform="translate(1373 361)" fill="#fff" stroke="#707070" stroke-width="1">
          <rect width="1" height="1" stroke="none"/>
          <rect x="0.5" y="0.5" fill="none"/>
        </g>
        <path id="Path_22" data-name="Path 22" d="M9.316,3.583S34.165-9.227,69.054-9.227s60.89,12.81,60.89,12.81l9.609,83.585H0Z" transform="translate(1302 209.63)" fill="#a72020"/>
        <g id="Path_23" data-name="Path 23" transform="translate(1310.321 247.245)" fill="#e8ebf2" stroke-linecap="square">
          <path d="M 120.728645324707 49.99903869628906 L 2.500009775161743 49.99903869628906 L 2.500009775161743 3.072603464126587 L 60.08710098266602 0.6136094927787781 L 120.728645324707 3.077563762664795 L 120.728645324707 49.99903869628906 Z" stroke="none"/>
          <path d="M 60.08960723876953 3.115768432617188 L 5 5.468105316162109 L 5 47.49903869628906 L 118.2286376953125 47.49903869628906 L 118.2286376953125 5.47802734375 L 60.08960723876953 3.115768432617188 M 60.08456039428711 -1.888565063476563 L 123.2286376953125 0.6770553588867188 L 123.2286376953125 52.49903869628906 L 0 52.49903869628906 L 0 0.6770553588867188 L 60.08456039428711 -1.888565063476563 Z" stroke="none" fill="#c9cbd2"/>
        </g>
        <rect id="Rectangle_45" data-name="Rectangle 45" width="20" height="44" rx="6" transform="translate(1454 244)" fill="#c9cbd2"/>
        <rect id="Rectangle_46" data-name="Rectangle 46" width="36" height="4" rx="2" transform="translate(1429 256)" fill="#c9cbd2"/>
        <rect id="Rectangle_47" data-name="Rectangle 47" width="36" height="4" rx="2" transform="matrix(0.921, -0.391, 0.391, 0.921, 1430.299, 282.192)" fill="#c9cbd2"/>
        <rect id="Rectangle_48" data-name="Rectangle 48" width="20" height="44" rx="6" transform="translate(1270 244)" fill="#c9cbd2"/>
        <rect id="Rectangle_49" data-name="Rectangle 49" width="36" height="4" rx="2" transform="translate(1279 256)" fill="#c9cbd2"/>
        <rect id="Rectangle_50" data-name="Rectangle 50" width="36" height="4" rx="2" transform="matrix(-0.921, -0.391, 0.391, -0.921, 1312.138, 285.874)" fill="#c9cbd2"/>
        <line id="Line_9" data-name="Line 9" y2="36" transform="translate(1370.5 249.5)" fill="none" stroke="#c9cbd2" stroke-linecap="round" stroke-width="4"/>
        <g transform="matrix(1, 0, 0, 1, 1247, 160.26)" filter="url(#Path_25)">
          <path id="Path_25-2" data-name="Path 25" d="M0-.279S7.524-3.246,14.46-3.246A35.552,35.552,0,0,1,27.747-.279V47.253A55.478,55.478,0,0,1,14.46,49.039,72.992,72.992,0,0,1,0,47.253Z" transform="translate(195.25 134.38)" fill="#fff"/>
        </g>
        <g id="Group_4" data-name="Group 4" transform="translate(0 -2)">
          <g id="Rectangle_11" data-name="Rectangle 11" transform="translate(1257 365.505)" fill="none" stroke="#fff" stroke-width="5">
            <rect width="43" height="24" rx="10" stroke="none"/>
            <rect x="2.5" y="2.5" width="38" height="19" rx="7.5" fill="none"/>
          </g>
          <g id="Group_3" data-name="Group 3">
            <g id="Rectangle_11-2" data-name="Rectangle 11" transform="translate(1442.553 365.505)" fill="none" stroke="#fff" stroke-width="5">
              <rect width="43" height="24" rx="10" stroke="none"/>
              <rect x="2.5" y="2.5" width="38" height="19" rx="7.5" fill="none"/>
            </g>
            <line id="Line_12" data-name="Line 12" y2="18" transform="translate(1464.5 368.5)" fill="none" stroke="#fff" stroke-linecap="round" stroke-width="3"/>
          </g>
          <line id="Line_13" data-name="Line 13" y2="18" transform="translate(1278.5 368.505)" fill="none" stroke="#fff" stroke-linecap="round" stroke-width="3"/>
        </g>
        <g id="Group_5" data-name="Group 5">
          <g id="Group_2" data-name="Group 2">
            <g id="Path_24" data-name="Path 24" transform="translate(1300 290.725)" fill="none">
              <path d="M0,3.692s34.222-11.3,69.972-11.3S143,3.692,143,3.692V104.275H0Z" stroke="none"/>
              <path d="M 69.97179412841797 4.393096923828125 C 46.73029327392578 4.393096923828125 23.82106781005859 9.555885314941406 12 12.70825958251953 L 12 92.27457427978516 L 131 92.27457427978516 L 131 12.87808990478516 C 118.3861312866211 9.711051940917969 93.67490386962891 4.393096923828125 69.97179412841797 4.393096923828125 M 69.97179412841797 -7.606903076171875 C 105.721794128418 -7.606903076171875 143 3.692451477050781 143 3.692451477050781 L 143 104.2745742797852 L 0 104.2745742797852 L 0 3.692451477050781 C 0 3.692451477050781 34.22179412841797 -7.606903076171875 69.97179412841797 -7.606903076171875 Z" stroke="none" fill="#c9cbd2"/>
            </g>
          </g>
          <g id="Group_1" data-name="Group 1">
            <line id="Line_14" data-name="Line 14" y2="94" transform="translate(1370.5 288.5)" fill="none" stroke="#c9cbd2" stroke-linecap="round" stroke-width="8"/>
            <line id="Line_15" data-name="Line 15" y2="94" transform="translate(1337 292.505)" fill="none" stroke="#c9cbd2" stroke-linecap="round" stroke-width="6"/>
            <line id="Line_16" data-name="Line 16" y2="94" transform="translate(1403 292.505)" fill="none" stroke="#c9cbd2" stroke-linecap="round" stroke-width="6"/>
            <line id="Line_18" data-name="Line 18" x1="130" transform="translate(1305.5 374.899)" fill="none" stroke="#c9cbd2" stroke-linecap="round" stroke-width="6"/>
            <line id="Line_19" data-name="Line 19" x1="130" transform="translate(1305.5 365.899)" fill="none" stroke="#c9cbd2" stroke-linecap="round" stroke-width="6"/>
            <line id="Line_20" data-name="Line 20" x1="130" transform="translate(1306.5 356.899)" fill="none" stroke="#c9cbd2" stroke-linecap="round" stroke-width="6"/>
            <line id="Line_21" data-name="Line 21" x1="130" transform="translate(1306.5 347.899)" fill="none" stroke="#c9cbd2" stroke-linecap="round" stroke-width="6"/>
            <line id="Line_22" data-name="Line 22" x1="130" transform="translate(1307.5 338.899)" fill="none" stroke="#c9cbd2" stroke-linecap="round" stroke-width="6"/>
            <line id="Line_23" data-name="Line 23" x1="130" transform="translate(1307.5 329.899)" fill="none" stroke="#c9cbd2" stroke-linecap="round" stroke-width="6"/>
            <line id="Line_24" data-name="Line 24" x1="130" transform="translate(1308.5 320.899)" fill="none" stroke="#c9cbd2" stroke-linecap="round" stroke-width="6"/>
            <line id="Line_25" data-name="Line 25" x1="130" transform="translate(1308.5 311.899)" fill="none" stroke="#c9cbd2" stroke-linecap="round" stroke-width="6"/>
            <line id="Line_26" data-name="Line 26" x1="130" transform="translate(1308.5 301.899)" fill="none" stroke="#c9cbd2" stroke-linecap="round" stroke-width="6"/>
            <line id="Line_27" data-name="Line 27" x1="79" transform="translate(1332.5 296.798)" fill="none" stroke="#c9cbd2" stroke-linecap="round" stroke-width="6"/>
            <line id="Line_28" data-name="Line 28" y2="94" transform="translate(1418 292.5)" fill="none" stroke="#c9cbd2" stroke-linecap="round" stroke-width="3"/>
            <line id="Line_29" data-name="Line 29" y2="94" transform="translate(1323 291.899)" fill="none" stroke="#c9cbd2" stroke-linecap="round" stroke-width="3"/>
            <line id="Line_30" data-name="Line 30" y2="94" transform="translate(1352.5 292.505)" fill="none" stroke="#c9cbd2" stroke-linecap="round" stroke-width="3"/>
            <line id="Line_31" data-name="Line 31" y2="94" transform="translate(1388 290.501)" fill="none" stroke="#c9cbd2" stroke-linecap="round" stroke-width="3"/>
          </g>
        </g>
        <ellipse id="Ellipse_8" data-name="Ellipse 8" cx="15.5" cy="7" rx="15.5" ry="7" transform="translate(1355 287)" fill="#fff"/>
        <g id="Group_7" data-name="Group 7" transform="translate(-1 10)">
          <g id="Group_6" data-name="Group 6">
            <g id="Ellipse_2" data-name="Ellipse 2" transform="translate(1361 212)" fill="#707070" stroke="#707070" stroke-width="1">
              <circle cx="10" cy="10" r="10" stroke="none"/>
              <circle cx="10" cy="10" r="9.5" fill="none"/>
            </g>
          </g>
          <g id="Ellipse_3" data-name="Ellipse 3" transform="translate(1363 214)" fill="#ecedf1" stroke="#707070" stroke-width="1">
            <circle cx="8" cy="8" r="8" stroke="none"/>
            <circle cx="8" cy="8" r="7.5" fill="none"/>
          </g>
          <line id="Line_32" data-name="Line 32" y2="3" transform="translate(1371 232)" fill="none" stroke="#707070" stroke-linecap="round" stroke-width="4"/>
        </g>
        <g id="Group_8" data-name="Group 8" transform="translate(-34 12)">
          <g id="Group_6-2" data-name="Group 6">
            <g id="Ellipse_2-2" data-name="Ellipse 2" transform="translate(1361 212)" fill="#707070" stroke="#707070" stroke-width="1">
              <circle cx="10" cy="10" r="10" stroke="none"/>
              <circle cx="10" cy="10" r="9.5" fill="none"/>
            </g>
          </g>
          <g id="Ellipse_3-2" data-name="Ellipse 3" transform="translate(1363 214)" fill="#ecedf1" stroke="#707070" stroke-width="1">
            <circle cx="8" cy="8" r="8" stroke="none"/>
            <circle cx="8" cy="8" r="7.5" fill="none"/>
          </g>
          <line id="Line_32-2" data-name="Line 32" y2="3" transform="translate(1371 232)" fill="none" stroke="#707070" stroke-linecap="round" stroke-width="4"/>
        </g>
        <g id="Group_9" data-name="Group 9" transform="translate(32 12)">
          <g id="Group_6-3" data-name="Group 6">
            <g id="Ellipse_2-3" data-name="Ellipse 2" transform="translate(1361 212)" fill="#707070" stroke="#707070" stroke-width="1">
              <circle cx="10" cy="10" r="10" stroke="none"/>
              <circle cx="10" cy="10" r="9.5" fill="none"/>
            </g>
          </g>
          <g id="Ellipse_3-3" data-name="Ellipse 3" transform="translate(1363 214)" fill="#ecedf1" stroke="#707070" stroke-width="1">
            <circle cx="8" cy="8" r="8" stroke="none"/>
            <circle cx="8" cy="8" r="7.5" fill="none"/>
          </g>
          <line id="Line_32-3" data-name="Line 32" y2="3" transform="translate(1371 232)" fill="none" stroke="#707070" stroke-linecap="round" stroke-width="4"/>
        </g>
        <rect id="Rectangle_51" data-name="Rectangle 51" width="250" height="47" rx="3" transform="translate(1247 393)" fill="#fff"/>
        <rect id="Rectangle_52" data-name="Rectangle 52" width="55" height="20" rx="3" transform="translate(1343 407)" fill="#c9cbd1"/>
        <path id="Path_46" data-name="Path 46" d="M1525.676,284.822" transform="translate(-168.94 190.268)" fill="none" stroke="#707070" stroke-width="1"/>
        <g id="Group_13" data-name="Group 13" transform="translate(1443 440)">
          <g id="Group_11" data-name="Group 11" transform="translate(0 0)">
            <g id="Union_3" data-name="Union 3" transform="translate(2.751)" fill="#707070">
              <path d="M 24.03930473327637 24.76750183105469 L 17.92922401428223 24.76750183105469 L 8.491958618164063 24.76750183105469 C 8.287452697753906 24.70856475830078 7.411351680755615 23.97068786621094 5.951894283294678 21.34353065490723 L 5.904414176940918 21.2580509185791 L 5.828224182128906 21.19676208496094 C 4.22814416885376 19.90953063964844 3.329874038696289 16.97295188903809 2.67397403717041 14.82875156402588 C 2.430334091186523 14.03225135803223 2.219924211502075 13.34438133239746 2.001744031906128 12.80701160430908 C 0.4967541098594666 9.100380897521973 0.03471410647034645 3.82564115524292 1.012974143028259 1.519071221351624 L 1.051834106445313 1.427441239356995 L 1.05264413356781 1.327921271324158 C 1.055064082145691 1.031911253929138 1.059004068374634 0.772281289100647 1.06231415271759 0.5543412566184998 C 1.062565326690674 0.5377928614616394 1.062812685966492 0.521503746509552 1.063055038452148 0.5054774880409241 C 1.284858226776123 0.5023620128631592 1.623762845993042 0.5000012516975403 2.14160418510437 0.5000012516975403 C 3.134984016418457 0.5000012516975403 4.439673900604248 0.5080412626266479 5.701404094696045 0.5158212780952454 C 6.7845139503479 0.5224912762641907 7.807544231414795 0.5288012623786926 8.47745418548584 0.5288012623786926 L 27.33779335021973 0.5288012623786926 C 28.18698501586914 0.5288012623786926 29.48465347290039 0.5225012898445129 30.85852432250977 0.5158212780952454 C 32.45993423461914 0.5080412626266479 34.11586380004883 0.5000012516975403 35.37717437744141 0.5000012516975403 C 36.13623046875 0.5000012516975403 36.59910202026367 0.5030841827392578 36.88026809692383 0.5070673823356628 C 36.88056564331055 0.5228022933006287 36.88087463378906 0.5387937426567078 36.88118362426758 0.5550312399864197 C 36.917724609375 2.46204137802124 37.01477432250977 7.527731418609619 35.35380554199219 12.26723098754883 C 34.04562377929688 16.00003051757813 30.98739433288574 19.32026100158691 29.28085327148438 20.96718215942383 C 28.15182495117188 22.05676078796387 26.95300483703613 23.0555419921875 25.90524482727051 23.779541015625 C 24.77429389953613 24.56102180480957 24.19016456604004 24.76750183105469 24.03930473327637 24.76750183105469 Z" stroke="none"/>
              <path d="M 2.141605377197266 1.000001907348633 C 1.912136077880859 1.000001907348633 1.718841552734375 1.000453948974609 1.556045532226563 1.001216888427734 C 1.554759979248047 1.105659484863281 1.553577423095703 1.216020584106445 1.552635192871094 1.332012176513672 L 1.551002502441406 1.531051635742188 L 1.473285675048828 1.714290618896484 C 1.041313171386719 2.732810974121094 0.8956222534179688 4.502801895141602 1.073585510253906 6.570411682128906 C 1.255535125732422 8.684581756591797 1.7626953125 10.8891716003418 2.465023040771484 12.61893081665039 C 2.691543579101563 13.17687129974365 2.904964447021484 13.8745813369751 3.152095794677734 14.68245124816895 C 3.789012908935547 16.76464080810547 4.661304473876953 19.61629104614258 6.141633987426758 20.80718231201172 L 6.294013977050781 20.92976188659668 L 6.388984680175781 21.10072135925293 C 7.577556610107422 23.24025917053223 8.351358413696289 24.06875610351563 8.622823715209961 24.26750183105469 L 24.0097827911377 24.26750183105469 C 24.16214370727539 24.23462867736816 24.7425594329834 23.99588584899902 25.82647323608398 23.2240104675293 C 26.85805511474609 22.48941040039063 28.02257537841797 21.50081062316895 29.10550308227539 20.44031143188477 C 30.72843360900879 18.85100173950195 33.63695526123047 15.65434169769287 34.88194274902344 12.10187149047852 C 36.39944458007813 7.771743774414063 36.42230987548828 3.142412185668945 36.38908386230469 1.002521514892578 C 36.13362884521484 1.000988006591797 35.80359649658203 1.000001907348633 35.37717437744141 1.000001907348633 C 34.11707305908203 1.000001907348633 32.46176528930664 1.008041381835938 30.86095428466797 1.01582145690918 C 29.48645401000977 1.022491455078125 28.18819427490234 1.028800964355469 27.33779525756836 1.028800964355469 L 8.477453231811523 1.028800964355469 C 7.806003570556641 1.028800964355469 6.782224655151367 1.022491455078125 5.698333740234375 1.015811920166016 C 4.437355041503906 1.008041381835938 3.133453369140625 1.000001907348633 2.141605377197266 1.000001907348633 M 2.1416015625 1.9073486328125e-06 C 4.007892608642578 1.9073486328125e-06 7.045942306518555 0.02880096435546875 8.477453231811523 0.02880096435546875 L 27.33779525756836 0.02880096435546875 C 30.06207656860352 0.02880287170410156 37.37366485595703 -0.03599739074707031 37.37366485595703 0.02880096435546875 C 37.37366485595703 1.314001083374023 37.70486450195313 7.070402145385742 35.82566452026367 12.43260097503662 C 33.5108757019043 19.03770065307617 25.54229354858398 25.26750183105469 24.03930282592773 25.26750183105469 L 8.477453231811523 25.26750183105469 C 7.906574249267578 25.26750183105469 6.757043838500977 23.82247161865234 5.514814376831055 21.58634185791016 C 3.207294464111328 19.7299919128418 2.362293243408203 15.02424144744873 1.538475036621094 12.99510097503662 C -0.00287628173828125 9.198921203613281 -0.4881362915039063 3.777872085571289 0.5526657104492188 1.323841094970703 C 0.5574722290039063 0.7351207733154297 0.5682754516601563 0.2897014617919922 0.5682754516601563 0.02880096435546875 C 0.5682754516601563 0.007198333740234375 1.208286285400391 1.9073486328125e-06 2.1416015625 1.9073486328125e-06 Z" stroke="none" fill="#707070"/>
            </g>
            <path id="Union_4" data-name="Union 4" d="M24.607.028H10c-1.563,0-5.757-.064-5.757,0H1.887C-.624.028-.459,7.948,1.385,13c.779,2.13,1.579,7.21,3.9,8.846a20.884,20.884,0,0,0,3.57,1.968c.485.923.894,1.459,1.147,1.459h13.42c1.353,0,6.743-6.23,8.826-12.836A39.869,39.869,0,0,0,33.64.028c0-.021-.731-.028-1.8-.028C29.712,0,26.242.028,24.607.028Z" transform="translate(2.388 0.001)" fill="#c9cbd2"/>
            <g id="Union_5" data-name="Union 5" transform="translate(0 0)" fill="#707070">
              <path d="M 24.13785171508789 24.76749992370605 L 17.49690055847168 24.76749992370605 C 17.39184951782227 24.76749992370605 17.14848136901855 24.74925994873047 16.69878005981445 24.62709045410156 L 16.56583023071289 24.59097099304199 L 16.43313980102539 24.62804985046387 C 15.99892044067383 24.74938011169434 15.76518058776855 24.76749992370605 15.66450023651123 24.76749992370605 L 10.95387172698975 24.76749992370605 C 10.83501529693604 24.74133682250977 10.34261703491211 24.50570678710938 9.36815071105957 23.6942195892334 C 8.454160690307617 22.9331111907959 7.437670230865479 21.9298210144043 6.505910396575928 20.86915016174316 C 5.059530258178711 19.2226505279541 2.498900413513184 15.92151069641113 1.600290417671204 12.31181049346924 C 0.4152904450893402 7.551030158996582 0.4847104251384735 2.467120409011841 0.5108504295349121 0.5532402992248535 C 0.5109624862670898 0.5450339317321777 0.511073887348175 0.5368777513504028 0.5111840963363647 0.5288003087043762 L 3.726900339126587 0.5288003087043762 L 4.226900577545166 0.5288003087043762 L 4.226900577545166 0.5000540018081665 C 4.453297138214111 0.500588595867157 4.75615930557251 0.505048930644989 5.103460311889648 0.5101603269577026 C 5.667490482330322 0.518470287322998 6.36944055557251 0.5288003087043762 7.145100593566895 0.5288003087043762 L 25.07489967346191 0.5288003087043762 L 26.25839996337891 0.5288003087043762 C 26.87936973571777 0.5288003087043762 27.82756996154785 0.5224903225898743 28.83143997192383 0.515820324420929 C 30.00082969665527 0.5080403089523315 31.21002960205078 0.5000002980232239 32.13059997558594 0.5000002980232239 C 32.58431243896484 0.5000002980232239 32.88908386230469 0.5020999312400818 33.09373474121094 0.5049332976341248 C 33.09396362304688 0.5211276412010193 33.09419631958008 0.5375925302505493 33.09442901611328 0.5543203353881836 C 33.12139129638672 2.467670202255249 33.1929817199707 7.550170421600342 31.97502136230469 12.30862045288086 C 31.03013038635254 15.99914073944092 28.94609069824219 19.26517105102539 27.78791999816895 20.88354110717773 C 25.96474266052246 23.43113327026367 24.49849700927734 24.68024063110352 24.13785171508789 24.76749992370605 Z" stroke="none"/>
              <path d="M 24.03385925292969 24.26749992370605 C 24.48943710327148 24.02606964111328 25.87995338439941 22.72968673706055 27.52646064758301 20.38792991638184 C 28.62120056152344 18.83093070983887 30.5919303894043 15.69478034973145 31.49063110351563 12.1846399307251 C 32.60856628417969 7.816981315612793 32.6248893737793 3.154758930206299 32.60024642944336 1.000903964042664 C 32.4656867980957 1.000333309173584 32.31023406982422 1.000000357627869 32.13059997558594 1.000000357627869 C 31.21169090270996 1.000000357627869 30.00333976745605 1.008040308952332 28.83476066589355 1.015810370445251 C 27.83003997802734 1.022490262985229 26.88103103637695 1.028800368309021 26.25839996337891 1.028800368309021 L 7.145100593566895 1.028800368309021 C 6.365760326385498 1.028800368309021 5.661770343780518 1.018440365791321 5.096100330352783 1.010110259056091 C 4.966182231903076 1.008195042610168 4.842517852783203 1.006373286247253 4.726900577545166 1.004817008972168 L 4.726900577545166 1.028800368309021 L 1.00489342212677 1.028800368309021 C 0.981497049331665 3.196435928344727 1.002275824546814 7.839194297790527 2.085480451583862 12.19103050231934 C 2.718260526657104 14.73287010192871 4.370240211486816 17.6387996673584 6.737120628356934 20.37351036071777 C 8.80405330657959 22.76167106628418 10.56420230865479 24.06367874145508 11.03973388671875 24.26749992370605 L 15.66450023651123 24.26749992370605 C 15.71166038513184 24.26749992370605 15.89677047729492 24.25876998901367 16.29857063293457 24.1464900970459 L 16.56396102905273 24.07234001159668 L 16.82987022399902 24.14458084106445 C 17.24971008300781 24.25864028930664 17.44657135009766 24.26749992370605 17.49690055847168 24.26749992370605 L 24.03385925292969 24.26749992370605 M 24.15419960021973 25.26749992370605 L 17.49690055847168 25.26749992370605 C 17.26564979553223 25.26749992370605 16.94728088378906 25.21272087097168 16.56770133972168 25.10960006713867 C 16.19867134094238 25.21272087097168 15.88921070098877 25.26749992370605 15.66450023651123 25.26749992370605 L 10.93860054016113 25.26749992370605 C 9.871200561523438 25.26749992370605 2.759400367736816 19.03770065307617 1.115100383758545 12.4326000213623 C -0.2195995599031448 7.070400238037109 0.01620043627917767 1.314000368118286 0.01620043627917767 0.02880031242966652 L 3.726900339126587 0.02880031242966652 C 3.726900339126587 -0.03599969297647476 5.209200859069824 0.02880031242966652 7.145100593566895 0.02880031242966652 L 26.25839996337891 0.02880031242966652 C 28.2483024597168 0.02880031242966652 33.58890151977539 -0.03599954769015312 33.58890151977539 0.02880031242966652 C 33.58890151977539 1.314000368118286 33.83190155029297 7.070400238037109 32.45940017700195 12.4326000213623 C 30.76830101013184 19.03770065307617 25.25310134887695 25.26749992370605 24.15419960021973 25.26749992370605 Z" stroke="none" fill="#707070"/>
            </g>
            <path id="Union_6" data-name="Union 6" d="M13.605,25.267a1.675,1.675,0,0,1-.189-.012,1.342,1.342,0,0,1-.169.012l-.139-.065A13.4,13.4,0,0,1,9.238,23.4L7.007,22.354c-.9,0-4.673-3.316-6.063-9.922A59.079,59.079,0,0,1,.014.029c0-.065,4.392,0,6.029,0h15.62c1.831,0,6.743-.065,6.743,0a52.967,52.967,0,0,1-1.039,12.4c-1.555,6.605-7.087,12.835-8.1,12.835Z" transform="translate(2.388 0)" fill="#c9cbd2"/>
            <path id="Union_7" data-name="Union 7" d="M11.443,25.267c-1.2,0-1.338-2.686-3.694-4.692C5.826,18.94,1.793,15.125,1.148,13-.382,7.947-.517.028,1.562.028h.751c0-.064,3.71,0,5.092,0H20.387c2.032,0,7.484-.064,7.484,0a47.82,47.82,0,0,1-1.154,12.4c-1.726,6.605-6.243,12.835-7.365,12.835Z" transform="translate(0.377 0.001)" fill="#707070"/>
            <path id="Union_8" data-name="Union 8" d="M16.292.028H1.249C-.413.028-.3,7.945.917,12.992c.515,2.13,4.849,4.638,6.387,6.273,1.882,2,3.777,6,4.737,6h3.221c.9,0,4.709-6.228,6.089-12.831a59.483,59.483,0,0,0,.922-12.4h0C22.273-.036,17.916.028,16.292.028Z" transform="translate(2.022 0)" fill="#c9cbd2"/>
            <g id="Union_9" data-name="Union 9" transform="translate(2.388 0.034)" fill="#707070">
              <path d="M 12.75204944610596 24.68969917297363 L 5.305859565734863 20.849609375 L 5.198019504547119 20.79399871826172 L 5.076679706573486 20.79399871826172 C 4.473269939422607 20.79399871826172 3.96317982673645 20.65036964416504 2.431889772415161 18.73042869567871 C 1.665029764175415 17.76961898803711 1.590239763259888 16.49248886108398 1.511049747467041 15.14037895202637 C 1.468069791793823 14.406569480896 1.423629760742188 13.6477689743042 1.268969774246216 12.89453887939453 C 0.8050697445869446 10.63815879821777 0.5105297565460205 7.637878894805908 0.5002797245979309 5.064408779144287 C 0.4872761368751526 1.801048755645752 0.9141364693641663 0.7069960236549377 1.102192401885986 0.5287989974021912 L 13.8417501449585 0.5287989974021912 C 14.30049991607666 0.5287989974021912 14.93365955352783 0.5215590000152588 15.54595947265625 0.5145590305328369 C 16.17169952392578 0.5073990225791931 16.81873893737793 0.4999990165233612 17.29633903503418 0.4999990165233612 C 17.41303253173828 0.4999990165233612 17.5103874206543 0.5004599094390869 17.59153938293457 0.501214325428009 L 17.59153938293457 0.5287989974021912 L 17.68426132202148 0.5287989974021912 C 17.6862678527832 0.6233077049255371 17.6885871887207 0.7255034446716309 17.69107055664063 0.8349990248680115 C 17.73758888244629 2.886269092559814 17.84652900695801 7.689969062805176 17.03853034973145 12.24445915222168 C 16.37611961364746 15.97539901733398 15.27707958221436 19.15599822998047 14.68091011047363 20.71983909606934 C 13.7678861618042 23.11482810974121 13.06125926971436 24.32136154174805 12.75204944610596 24.68969917297363 Z" stroke="none"/>
              <path d="M 17.09153938293457 1.000396728515625 C 16.64463996887207 1.002021789550781 16.09027099609375 1.008359909057617 15.55167961120605 1.014518737792969 C 14.93796920776367 1.021539688110352 14.30335998535156 1.028799057006836 13.84174919128418 1.028799057006836 L 1.396512985229492 1.028799057006836 C 1.226079940795898 1.481023788452148 0.966400146484375 2.75602912902832 1.003499984741211 5.42011833190918 C 1.038108825683594 7.905498504638672 1.320428848266602 10.66198921203613 1.758760452270508 12.79396915435791 C 1.920669555664063 13.58252906799316 1.966178894042969 14.35962867736816 2.010189056396484 15.11114883422852 C 2.087839126586914 16.4368896484375 2.154890060424805 17.58183860778809 2.822779655456543 18.41865921020508 C 4.318510055541992 20.29399871826172 4.703939437866211 20.29399871826172 5.076680183410645 20.29399871826172 L 5.31934928894043 20.29399871826172 L 12.59518432617188 24.04623603820801 C 12.94924354553223 23.4807243347168 13.56062984466553 22.28475189208984 14.29306030273438 20.33185958862305 C 15.27487945556641 17.71399879455566 16.0750789642334 14.81076908111572 16.54620933532715 12.15711879730225 C 17.32255172729492 7.781112670898438 17.24285125732422 3.156829833984375 17.19531631469727 1.028799057006836 L 17.09153938293457 1.028799057006836 L 17.09153938293457 1.000396728515625 M 17.29633903503418 -1.9073486328125e-06 C 17.7726001739502 -1.9073486328125e-06 18.09153938293457 0.007198333740234375 18.09153938293457 0.02879905700683594 L 18.17704010009766 0.02879905700683594 C 18.17704010009766 1.313999176025391 18.48213958740234 6.969598770141602 17.53083992004395 12.3317985534668 C 16.35815048217773 18.93689918518066 13.54205989837646 25.26749992370605 12.78155994415283 25.26749992370605 L 5.076680183410645 21.29399871826172 C 4.261280059814453 21.29399871826172 3.640289306640625 21.04739952087402 2.040988922119141 19.04219818115234 C 0.7350902557373047 17.40599822998047 1.216588973999023 15.12539863586426 0.7791900634765625 12.99509906768799 C -0.2585010528564453 7.947898864746094 -0.3512001037597656 0.02879905700683594 1.060890197753906 0.02879905700683594 L 13.84174919128418 0.02879905700683594 C 14.7615795135498 0.02879905700683594 16.34375953674316 -1.9073486328125e-06 17.29633903503418 -1.9073486328125e-06 Z" stroke="none" fill="#707070"/>
            </g>
            <g id="Union_10" data-name="Union 10" transform="translate(18.867 25.302) rotate(180)" fill="#707070">
              <path d="M 17.56183052062988 24.76749610900879 L 17.56182098388672 24.76749610900879 C 17.0833911895752 24.76750755310059 16.47859954833984 24.76225662231445 15.95007991790771 24.75710678100586 L 15.93478012084961 24.75695610046387 L 15.91950035095215 24.75774765014648 C 15.79393005371094 24.76421737670898 15.55842018127441 24.76749610900879 15.21953010559082 24.76749610900879 C 14.67924022674561 24.76749610900879 13.9680004119873 24.75946617126465 13.28017997741699 24.75170707702637 C 12.68775081634521 24.74501609802246 12.12818050384521 24.73869705200195 11.7603006362915 24.73869705200195 L 0.9961800575256348 24.73869705200195 C 0.8272882103919983 24.48212051391602 0.4851258993148804 23.30234909057617 0.5008003711700439 20.13614654541016 C 0.5134803652763367 17.57504653930664 0.7641304135322571 14.59481716156006 1.154940366744995 12.35846710205078 C 1.285540342330933 11.60996627807617 1.323120355606079 10.85370635986328 1.359470367431641 10.12234687805176 C 1.427140355110168 8.760787010192871 1.491060376167297 7.47473669052124 2.148110389709473 6.505946636199951 C 2.987940311431885 5.266766548156738 3.094120502471924 4.136836528778076 3.164380311965942 3.389136791229248 C 3.172930002212524 3.298184156417847 3.182407379150391 3.197350740432739 3.193184614181519 3.10720157623291 L 3.252270460128784 3.137296676635742 L 3.95952033996582 3.4975266456604 L 3.979050397872925 2.704056739807129 C 3.987470388412476 2.362106800079346 3.987060308456421 2.027156829833984 3.9867103099823 1.731636762619019 C 3.986184120178223 1.299244165420532 3.985497951507568 0.7312548756599426 4.032115936279297 0.4712973237037659 C 4.149800777435303 0.4572438597679138 4.348947525024414 0.4401067197322845 4.620330333709717 0.4401067197322845 C 5.520574569702148 0.4401067197322845 7.39838695526123 0.6330940127372742 9.902685165405273 1.918346524238586 C 10.7471866607666 2.720849275588989 12.19625091552734 4.776000499725342 13.36484050750732 6.43338680267334 C 14.04001426696777 7.39098072052002 14.62662315368652 8.222947120666504 15.01544857025146 8.70285701751709 C 15.25759124755859 9.251449584960938 15.47814083099365 9.67366886138916 15.69171047210693 10.08251667022705 C 16.2829704284668 11.21444702148438 16.74999046325684 12.10851669311523 17.23052024841309 14.98721694946289 C 18.02760696411133 19.75530624389648 18.02490234375 23.21530532836914 18.01606750488281 24.76529502868652 C 17.90042877197266 24.76662445068359 17.75206565856934 24.76749610900879 17.56183052062988 24.76749610900879 Z" stroke="none"/>
              <path d="M 15.2195405960083 24.26749610900879 C 15.63094997406006 24.26749610900879 15.8132905960083 24.2625560760498 15.89380073547363 24.25840759277344 L 15.92435073852539 24.2568359375 L 15.9549503326416 24.25713729858398 C 16.46613693237305 24.26210975646973 17.04866981506348 24.26718711853027 17.51773071289063 24.26748275756836 C 17.51800727844238 22.55436325073242 17.45149612426758 19.34153175354004 16.73735046386719 15.06954669952393 C 16.26992988586426 12.26941680908203 15.81918048858643 11.40649700164795 15.24852085113525 10.31400680541992 C 15.04874229431152 9.931543350219727 14.82419872283936 9.501678466796875 14.58490943908691 8.965324401855469 C 14.1861515045166 8.465924263000488 13.61273002624512 7.652644157409668 12.95620059967041 6.721506595611572 C 11.88268375396729 5.198965072631836 10.42726421356201 3.134743928909302 9.608889579772949 2.329748868942261 C 7.231344699859619 1.122609257698059 5.467588901519775 0.9401066899299622 4.620330333709717 0.9401066899299622 C 4.576066493988037 0.9401066899299622 4.534058094024658 0.9406000971794128 4.494290351867676 0.9414789080619812 C 4.48604679107666 1.184315919876099 4.486409664154053 1.483604550361633 4.486710548400879 1.73103666305542 C 4.487070560455322 2.029576778411865 4.487470149993896 2.367956638336182 4.47890043258667 2.716366767883301 L 4.439830303192139 4.303296566009521 L 3.61566162109375 3.883506536483765 C 3.524297714233398 4.636938095092773 3.310969829559326 5.681371688842773 2.561910390853882 6.786596775054932 C 1.983490347862244 7.639456748962402 1.922950387001038 8.857546806335449 1.858860373497009 10.14716625213623 C 1.821750402450562 10.89365673065186 1.783390402793884 11.66555690765381 1.647470355033875 12.44453716278076 C 1.273360371589661 14.58538627624512 1.032520413398743 17.35315704345703 1.003230333328247 19.84834671020508 C 0.9728614687919617 22.43515014648438 1.181453108787537 23.73172760009766 1.330232739448547 24.23869705200195 L 11.7603006362915 24.23869705200195 C 12.13103008270264 24.23869705200195 12.69200992584229 24.24502754211426 13.28593063354492 24.25173759460449 C 13.97233009338379 24.25948715209961 14.68209075927734 24.26749610900879 15.2195405960083 24.26749610900879 M 17.56183052062988 25.26749610900879 C 17.10258102416992 25.26750755310059 16.52597045898438 25.26273727416992 15.94521999359131 25.2570858001709 C 15.33457183837891 25.28854560852051 12.78877067565918 25.23869705200195 11.7603006362915 25.23869705200195 L 0.9018003940582275 25.23869705200195 C -0.297899603843689 25.23869705200195 -0.2195996195077896 17.3195972442627 0.6624003648757935 12.2723970413208 C 1.034100413322449 10.14209651947021 0.6246004104614258 7.861496925354004 1.734300374984741 6.225296497344971 C 3.093300342559814 4.220096588134766 2.356200456619263 2.473196744918823 3.050100326538086 2.473196744918823 L 3.47920036315918 2.691756725311279 C 3.514980316162109 1.238216757774353 3.388420343399048 -3.282470743215526e-06 3.805200338363647 -3.282470743215526e-06 C 3.805200576782227 -3.282470743215526e-06 6.283799648284912 -0.5202035903930664 10.19340038299561 1.505696773529053 C 11.56230068206787 2.762996673583984 14.40180015563965 7.174796581268311 15.44580078125 8.439296722412109 C 16.37910079956055 10.57679653167725 17.05319976806641 10.88819694519043 17.72369956970215 14.90489673614502 C 18.6201000213623 20.26709747314453 18.51390075683594 23.9534969329834 18.51390075683594 25.23869705200195 C 18.51390075683594 25.26029586791992 18.12644004821777 25.26749610900879 17.56183052062988 25.26749610900879 Z" stroke="none" fill="#707070"/>
            </g>
          </g>
        </g>
        <g id="Ellipse_9" data-name="Ellipse 9" transform="translate(1349 242)" fill="#707070" stroke="#707070" stroke-width="1">
          <circle cx="3.5" cy="3.5" r="3.5" stroke="none"/>
          <circle cx="3.5" cy="3.5" r="3" fill="none"/>
        </g>
        <g id="Ellipse_10" data-name="Ellipse 10" transform="translate(1383 243)" fill="#707070" stroke="#707070" stroke-width="1">
          <circle cx="3.5" cy="3.5" r="3.5" stroke="none"/>
          <circle cx="3.5" cy="3.5" r="3" fill="none"/>
        </g>
        <rect id="Rectangle_53" data-name="Rectangle 53" width="29" height="3" rx="1.5" transform="translate(1263 389)" fill="#fff"/>
        <rect id="Rectangle_54" data-name="Rectangle 54" width="29" height="3" rx="1.5" transform="translate(1450 389)" fill="#fff"/>
        <g id="Group_18" data-name="Group 18" transform="translate(1259.853 441)">
          <g id="Group_11-2" data-name="Group 11" transform="translate(0 0)">
            <g id="Union_3-2" data-name="Union 3" transform="translate(37.396 25.268) rotate(180)" fill="#707070">
              <path d="M 35.37711334228516 24.76750373840332 C 34.11581420898438 24.76750373840332 32.45988464355469 24.75946426391602 30.85847282409668 24.75168418884277 C 29.48460388183594 24.74500274658203 28.18693351745605 24.73870277404785 27.33775329589844 24.73870277404785 L 8.477433204650879 24.73870277404785 C 7.807473659515381 24.73870277404785 6.784343719482422 24.74501419067383 5.701133728027344 24.75168418884277 C 4.43950366973877 24.75946426391602 3.134913682937622 24.76750373840332 2.14159369468689 24.76750373840332 C 1.623761057853699 24.76750373840332 1.284855723381042 24.7651424407959 1.06305456161499 24.76202774047852 C 1.062812089920044 24.74600028991699 1.062564849853516 24.72971153259277 1.062313556671143 24.71316337585449 C 1.059003591537476 24.49522399902344 1.055063605308533 24.23560333251953 1.052643537521362 23.93958282470703 L 1.051833629608154 23.84007263183594 L 1.012973546981812 23.74844360351563 C 0.03471358865499496 21.44187355041504 0.4967535734176636 16.16713333129883 2.001733541488647 12.46050357818604 C 2.219913482666016 11.92312335968018 2.430323600769043 11.23525333404541 2.67396354675293 10.43876361846924 C 3.329863548278809 8.294563293457031 4.228143692016602 5.357973575592041 5.828213691711426 4.070743560791016 L 5.904403686523438 4.009453296661377 L 5.951883792877197 3.923973321914673 C 7.411341190338135 1.296826720237732 8.287433624267578 0.5589489340782166 8.491939544677734 0.5000033974647522 L 17.9291934967041 0.5000033974647522 L 24.03926277160645 0.5000033974647522 C 24.19012451171875 0.5000033974647522 24.77425384521484 0.7064834237098694 25.90519332885742 1.487963438034058 C 26.95296287536621 2.211963415145874 28.15177345275879 3.210743427276611 29.28080368041992 4.300323486328125 C 30.98734283447266 5.947243213653564 34.04557418823242 9.267473220825195 35.35375213623047 13.00027370452881 C 37.01471328735352 17.73977279663086 36.91766357421875 22.80545425415039 36.88112258911133 24.71247291564941 C 36.88081359863281 24.72871017456055 36.8805046081543 24.74470329284668 36.88020706176758 24.76043701171875 C 36.59904098510742 24.76441955566406 36.13616943359375 24.76750373840332 35.37711334228516 24.76750373840332 Z" stroke="none"/>
              <path d="M 35.37711334228516 24.26750373840332 C 35.80353546142578 24.26750373840332 36.13356781005859 24.26651573181152 36.38902282714844 24.26498413085938 C 36.42224884033203 22.12509346008301 36.39938735961914 17.49575996398926 34.88189315795898 13.16563320159912 C 33.63690185546875 9.613162994384766 30.72838401794434 6.416503429412842 29.10545349121094 4.827183246612549 C 28.02252388000488 3.766693353652954 26.85801315307617 2.778083324432373 25.8264331817627 2.043493509292603 C 24.74251937866211 1.271619558334351 24.1621036529541 1.032875299453735 24.00974273681641 1.000003457069397 L 8.622805595397949 1.000003457069397 C 8.351347923278809 1.198749184608459 7.5775465965271 2.02724552154541 6.388973712921143 4.166783332824707 L 6.294003486633301 4.337743282318115 L 6.141623497009277 4.460323333740234 C 4.661313533782959 5.651213645935059 3.789013624191284 8.502843856811523 3.152093648910522 10.58502388000488 C 2.904963493347168 11.39290332794189 2.691543579101563 12.09062385559082 2.465003490447998 12.64860343933105 C 1.762693643569946 14.37833309173584 1.255533576011658 16.58292388916016 1.073573589324951 18.69709396362305 C 0.8956235647201538 20.76471328735352 1.041313529014587 22.53470420837402 1.473283529281616 23.55322265625 L 1.551003575325012 23.73646354675293 L 1.55263364315033 23.93550300598145 C 1.55357825756073 24.05149078369141 1.554759860038757 24.1618480682373 1.5560462474823 24.26628875732422 C 1.718841314315796 24.26704978942871 1.912135362625122 24.26750373840332 2.141603469848633 24.26750373840332 C 3.133443593978882 24.26750373840332 4.437343597412109 24.25946426391602 5.69831371307373 24.25169372558594 C 6.782203674316406 24.24501419067383 7.805983543395996 24.23870277404785 8.477433204650879 24.23870277404785 L 27.33775329589844 24.23870277404785 C 28.18814277648926 24.23870277404785 29.48641395568848 24.24501419067383 30.86089324951172 24.25168418884277 C 32.46171188354492 24.25946426391602 34.11702346801758 24.26750373840332 35.37711334228516 24.26750373840332 M 35.37711334228516 25.26750373840332 C 33.00894546508789 25.26750373840332 29.15399360656738 25.23870277404785 27.33775329589844 25.23870277404785 L 8.477433204650879 25.23870277404785 C 6.330043792724609 25.23870086669922 0.5682735443115234 25.30350303649902 0.5682736039161682 25.23870277404785 C 0.5682736039161682 24.97780418395996 0.5574735999107361 24.53238296508789 0.5526635646820068 23.94367408752441 C -0.4881364107131958 21.48963356018066 -0.00287641235627234 16.06858253479004 1.538463592529297 12.27240371704102 C 2.362293481826782 10.24326324462891 3.207293510437012 5.537513256072998 5.514803409576416 3.681163311004639 C 6.757033824920654 1.445033431053162 7.906563758850098 3.425598151807208e-06 8.477433204650879 3.425598151807208e-06 L 24.03926277160645 3.425598151807208e-06 C 25.5422534942627 3.425598151807208e-06 33.51082229614258 6.229803562164307 35.82561492919922 12.83490371704102 C 37.70480346679688 18.19710350036621 37.37360382080078 23.9535026550293 37.37360382080078 25.23870277404785 C 37.37360382080078 25.26030349731445 36.56109237670898 25.26750373840332 35.37711334228516 25.26750373840332 Z" stroke="none" fill="#707070"/>
            </g>
            <path id="Union_4-2" data-name="Union 4" d="M24.606,25.24H10c-1.563,0-5.757.064-5.757,0H1.887c-2.511,0-2.346-7.919-.5-12.967.779-2.13,1.579-7.21,3.9-8.846a20.884,20.884,0,0,1,3.57-1.968C9.339.535,9.748,0,10,0h13.42c1.353,0,6.743,6.23,8.826,12.836a39.869,39.869,0,0,1,1.393,12.4c0,.021-.731.028-1.8.028C29.712,25.268,26.242,25.24,24.606,25.24Z" transform="translate(37.759 25.269) rotate(180)" fill="#c9cbd2"/>
            <g id="Union_5-2" data-name="Union 5" transform="translate(40.147 25.268) rotate(180)" fill="#707070">
              <path d="M 32.13042831420898 24.76750183105469 C 31.20992851257324 24.76750183105469 30.00081825256348 24.75946235656738 28.83150863647461 24.75168228149414 C 27.82753753662109 24.7450122833252 26.87924766540527 24.73870277404785 26.25822830200195 24.73870277404785 L 25.07473754882813 24.73870277404785 L 7.144958019256592 24.73870277404785 C 6.369307994842529 24.73870277404785 5.667357921600342 24.74903297424316 5.103327751159668 24.75734329223633 C 4.756026744842529 24.76245307922363 4.453164577484131 24.76691436767578 4.226768016815186 24.76744842529297 L 4.226768016815186 24.73870277404785 L 3.726767778396606 24.73870277404785 L 0.5110614895820618 24.73870277404785 C 0.5109513401985168 24.73062515258789 0.5108398795127869 24.72246932983398 0.5107278227806091 24.71426200866699 C 0.4845878481864929 22.80038261413574 0.4151678383350372 17.71647262573242 1.600167870521545 12.95567226409912 C 2.498767852783203 9.345992088317871 5.05939769744873 6.044852256774902 6.505777835845947 4.39835262298584 C 7.437527656555176 3.337682485580444 8.454017639160156 2.334392547607422 9.368007659912109 1.573282480239868 C 10.34248447418213 0.761796772480011 10.83487319946289 0.5261650681495667 10.9537296295166 0.5000024437904358 L 15.66434764862061 0.5000024437904358 C 15.76502799987793 0.5000024437904358 15.9987678527832 0.5181224942207336 16.43298721313477 0.6394524574279785 L 16.56567764282227 0.6765324473381042 L 16.69862747192383 0.640412449836731 C 17.14832878112793 0.5182424783706665 17.39169692993164 0.5000024437904358 17.49674797058105 0.5000024437904358 L 24.1376895904541 0.5000024437904358 C 24.49833488464355 0.5872624516487122 25.96458053588867 1.836369276046753 27.78774833679199 4.383962631225586 C 28.9459171295166 6.00233268737793 31.02995872497559 9.268362045288086 31.97483825683594 12.95891284942627 C 33.19280624389648 17.71733283996582 33.12120819091797 22.79984283447266 33.09425735473633 24.71318244934082 C 33.09402084350586 24.72990989685059 33.09379196166992 24.74637413024902 33.09356307983398 24.76256942749023 C 32.88891220092773 24.76540374755859 32.58419799804688 24.76750183105469 32.13042831420898 24.76750183105469 Z" stroke="none"/>
              <path d="M 11.03959083557129 1.000001907348633 C 10.56406021118164 1.203824996948242 8.803911209106445 2.505830764770508 6.736978530883789 4.893993377685547 C 4.370107650756836 7.628702163696289 2.718128204345703 10.53463268280029 2.085357666015625 13.07644271850586 C 1.002143859863281 17.42829704284668 0.9813728332519531 22.07106781005859 1.004772186279297 24.23870277404785 L 4.726768493652344 24.23870277404785 L 4.726768493652344 24.26268577575684 C 4.842384338378906 24.26112937927246 4.966049194335938 24.25930786132813 5.095968246459961 24.25739288330078 C 5.661638259887695 24.24906158447266 6.365627288818359 24.23870277404785 7.14495849609375 24.23870277404785 L 26.25822830200195 24.23870277404785 C 26.88085746765137 24.23870277404785 27.82986831665039 24.2450122833252 28.83459854125977 24.2516918182373 C 30.0031681060791 24.25946235656738 31.21151733398438 24.26750183105469 32.13041687011719 24.26750183105469 C 32.31005096435547 24.26750183105469 32.46550369262695 24.26716995239258 32.60006332397461 24.26659965515137 C 32.62470626831055 22.11274337768555 32.60838317871094 17.45052719116211 31.4904670715332 13.082932472229 C 30.59175872802734 9.572722434997559 28.62102890014648 6.436573028564453 27.52628707885742 4.879571914672852 C 25.87978935241699 2.537817001342773 24.4892749786377 1.241434097290039 24.03369522094727 1.000001907348633 L 17.49674797058105 1.000001907348633 C 17.44640731811523 1.000001907348633 17.2495174407959 1.008861541748047 16.82973861694336 1.122922897338867 L 16.56380844116211 1.195173263549805 L 16.29839706420898 1.121002197265625 C 15.89664840698242 1.008731842041016 15.71151733398438 1.000001907348633 15.66434860229492 1.000001907348633 L 11.03959083557129 1.000001907348633 M 10.93845748901367 1.9073486328125e-06 L 15.66434860229492 1.9073486328125e-06 C 15.88905715942383 1.9073486328125e-06 16.19851875305176 0.05477333068847656 16.56754875183105 0.1579017639160156 C 16.94712829589844 0.05477333068847656 17.2654972076416 1.9073486328125e-06 17.49674797058105 1.9073486328125e-06 L 24.15403747558594 1.9073486328125e-06 C 25.25293731689453 1.9073486328125e-06 30.76812744140625 6.229803085327148 32.4592170715332 12.8349027633667 C 33.83171844482422 18.19710159301758 33.58871841430664 23.9535026550293 33.58871841430664 25.23870277404785 C 33.58871841430664 25.30350303649902 28.24812698364258 25.23870277404785 26.25822830200195 25.23870277404785 L 7.14495849609375 25.23870277404785 C 5.209062576293945 25.23870277404785 3.726768493652344 25.30350303649902 3.726768493652344 25.23870277404785 L 0.01607894897460938 25.23870277404785 C 0.01607894897460938 23.9535026550293 -0.2197303771972656 18.19710159301758 1.114967346191406 12.8349027633667 C 2.759267807006836 6.229803085327148 9.871057510375977 1.9073486328125e-06 10.93845748901367 1.9073486328125e-06 Z" stroke="none" fill="#707070"/>
            </g>
            <path id="Union_6-2" data-name="Union 6" d="M13.605,0a1.675,1.675,0,0,0-.189.012A1.342,1.342,0,0,0,13.247,0l-.139.065a13.4,13.4,0,0,0-3.87,1.806L7.006,2.913c-.9,0-4.673,3.317-6.063,9.922a59.079,59.079,0,0,0-.93,12.4c0,.065,4.392,0,6.029,0h15.62c1.831,0,6.743.065,6.743,0a52.967,52.967,0,0,0-1.039-12.4C25.811,6.23,20.28,0,19.27,0Z" transform="translate(37.759 25.268) rotate(180)" fill="#c9cbd2"/>
            <path id="Union_7-2" data-name="Union 7" d="M11.443,0c-1.2,0-1.338,2.686-3.694,4.692-1.923,1.636-5.956,5.45-6.6,7.581C-.381,17.321-.517,25.24,1.563,25.24h.751c0,.064,3.71,0,5.092,0H20.387c2.032,0,7.484.064,7.484,0a47.82,47.82,0,0,0-1.154-12.4C24.992,6.23,20.475,0,19.353,0Z" transform="translate(39.77 25.268) rotate(180)" fill="#707070"/>
            <path id="Union_8-2" data-name="Union 8" d="M16.292,25.232H1.249c-1.662,0-1.553-7.917-.332-12.963C1.432,10.139,5.766,7.631,7.3,6c1.882-2,3.777-6,4.737-6h3.221c.9,0,4.709,6.228,6.089,12.831a59.483,59.483,0,0,1,.922,12.4h0C22.273,25.3,17.916,25.232,16.292,25.232Z" transform="translate(38.125 25.261) rotate(180)" fill="#c9cbd2"/>
            <g id="Union_9-2" data-name="Union 9" transform="translate(37.759 25.302) rotate(180)" fill="#707070">
              <path d="M 17.29631423950195 24.76750373840332 C 16.8187141418457 24.76750373840332 16.17167472839355 24.76010322570801 15.54593467712402 24.75294303894043 C 14.93363475799561 24.74594306945801 14.3004846572876 24.73870468139648 13.84173488616943 24.73870468139648 L 1.102196216583252 24.73870468139648 C 0.914131224155426 24.56050682067871 0.4872708916664124 23.46646308898926 0.5002744793891907 20.20310401916504 C 0.5105245113372803 17.62962341308594 0.8050644993782043 14.62934398651123 1.268954515457153 12.3730936050415 C 1.42363452911377 11.6197338104248 1.468074440956116 10.86093330383301 1.511054515838623 10.12711334228516 C 1.59024453163147 8.775003433227539 1.665034532546997 7.497883796691895 2.431774377822876 6.537203788757324 C 3.96317458152771 4.617133617401123 4.473264694213867 4.473503589630127 5.076674461364746 4.473503589630127 L 5.198014259338379 4.473503589630127 L 5.305854320526123 4.417893886566162 L 12.75202465057373 0.5778037309646606 C 13.06123447418213 0.9461411833763123 13.76786041259766 2.152675151824951 14.68088436126709 4.547663688659668 C 15.27705478668213 6.111503601074219 16.37609481811523 9.29210376739502 17.03851509094238 13.02310371398926 C 17.84650421142578 17.57753372192383 17.73756408691406 22.38123321533203 17.69104385375977 24.43250465393066 C 17.68856048583984 24.54199981689453 17.68624305725098 24.64419555664063 17.68423461914063 24.73870468139648 L 17.59151458740234 24.73870468139648 L 17.59151458740234 24.76628875732422 C 17.51036262512207 24.76704216003418 17.41300773620605 24.76750373840332 17.29631423950195 24.76750373840332 Z" stroke="none"/>
              <path d="M 17.09151458740234 24.26710510253906 L 17.09151458740234 24.23870468139648 L 17.19529151916504 24.23870468139648 C 17.24282455444336 22.11067199707031 17.3225269317627 17.48639488220215 16.54621505737305 13.11051368713379 C 16.07505416870117 10.45673370361328 15.27485466003418 7.55350399017334 14.29303455352783 4.935643672943115 C 13.56060409545898 2.982750415802002 12.94921779632568 1.786779284477234 12.59515857696533 1.221267342567444 L 5.319344520568848 4.973503589630127 L 5.076674461364746 4.973503589630127 C 4.703934669494629 4.973503589630127 4.318504333496094 4.973503589630127 2.822564601898193 6.849103927612305 C 2.154894590377808 7.685653686523438 2.087844371795654 8.83060359954834 2.010194540023804 10.15635395050049 C 1.966184496879578 10.90786361694336 1.920674443244934 11.68496417999268 1.758704423904419 12.47379398345947 C 1.320424437522888 14.60551357269287 1.03810453414917 17.36200332641602 1.003494501113892 19.84738349914551 C 0.9663955569267273 22.51147270202637 1.226074576377869 23.78647994995117 1.396508455276489 24.23870468139648 L 13.84173488616943 24.23870468139648 C 14.30333423614502 24.23870468139648 14.93794441223145 24.24596405029297 15.55165481567383 24.25298309326172 C 16.09024620056152 24.2591438293457 16.64461517333984 24.26548194885254 17.09151458740234 24.26710510253906 M 17.29631423950195 25.26750373840332 C 16.34373474121094 25.26750373840332 14.76155471801758 25.23870468139648 13.84173488616943 25.23870468139648 L 1.06089448928833 25.23870468139648 C -0.3512055277824402 25.23870468139648 -0.2585055232048035 17.31960296630859 0.7791944742202759 12.27240371704102 C 1.216594457626343 10.14210414886475 0.7350944876670837 7.861503601074219 2.040984392166138 6.225303649902344 C 3.640284538269043 4.220103740692139 4.261274337768555 3.973503828048706 5.076674461364746 3.973503828048706 L 12.78153419494629 3.776550329348538e-06 C 13.54203414916992 3.776550329348538e-06 16.35812377929688 6.33060359954834 17.53081512451172 12.93570423126221 C 18.48211479187012 18.29790306091309 18.17701530456543 23.95350456237793 18.17701530456543 25.23870468139648 L 18.09151458740234 25.23870468139648 C 18.09151458740234 25.26030349731445 17.77256393432617 25.26750373840332 17.29631423950195 25.26750373840332 Z" stroke="none" fill="#707070"/>
            </g>
            <g id="Union_10-2" data-name="Union 10" transform="translate(21.28 0.035)" fill="#707070">
              <path d="M 4.620035171508789 24.82739639282227 C 4.349045276641846 24.82739639282227 4.150067329406738 24.810302734375 4.031811714172363 24.79615592956543 C 3.985203981399536 24.53617286682129 3.985888957977295 23.96822738647461 3.986415147781372 23.53586578369141 C 3.986765146255493 23.24034690856934 3.987175226211548 22.9053955078125 3.978755235671997 22.56344604492188 L 3.959225177764893 21.76997566223145 L 3.251975297927856 22.13020515441895 L 3.192889451980591 22.16030120849609 C 3.182112216949463 22.07015228271484 3.172634840011597 21.96931838989258 3.164085149765015 21.87836647033691 C 3.093825101852417 21.13066673278809 2.987645149230957 20.00073623657227 2.147905111312866 18.76169586181641 C 1.49076521396637 17.79276657104492 1.426845192909241 16.50671577453613 1.359175205230713 15.14515590667725 C 1.322825193405151 14.41379642486572 1.285245180130005 13.65753650665283 1.154665231704712 12.90916633605957 C 0.7638452053070068 10.67267608642578 0.5131952166557312 7.692436218261719 0.5005052089691162 5.131346225738525 C 0.4848307073116302 1.965143918991089 0.8269930481910706 0.7853726744651794 0.995884895324707 0.5287960767745972 L 11.75999546051025 0.5287960767745972 C 12.12785530090332 0.5287960767745972 12.68741512298584 0.5224760770797729 13.27982521057129 0.5157960653305054 C 13.96759510040283 0.5080360770225525 14.67878532409668 0.5000060796737671 15.21907520294189 0.5000060796737671 C 15.55802536010742 0.5000060796737671 15.79357528686523 0.5032860636711121 15.91918563842773 0.5097560882568359 L 15.9344654083252 0.510546088218689 L 15.9497652053833 0.5103960633277893 C 16.47819519042969 0.5052560567855835 17.08291435241699 0.4999960660934448 17.56151580810547 0.4999960660934448 C 17.75175094604492 0.4999960660934448 17.90011215209961 0.5008676052093506 18.0157527923584 0.5021983981132507 C 18.02458572387695 2.052186965942383 18.02728271484375 5.51216459274292 17.230224609375 10.28016567230225 C 16.74967575073242 13.15898609161377 16.28265571594238 14.05305576324463 15.6913948059082 15.18498611450195 C 15.47782611846924 15.59383392333984 15.25727653503418 16.01605224609375 15.01513290405273 16.56464576721191 C 14.62630081176758 17.04456329345703 14.03969955444336 17.87653160095215 13.36451530456543 18.83412551879883 C 12.19593620300293 20.49151229858398 10.74688148498535 22.54665374755859 9.902379989624023 23.34915542602539 C 7.39808177947998 24.63440895080566 5.520279407501221 24.82739639282227 4.620035171508789 24.82739639282227 Z" stroke="none"/>
              <path d="M 15.21907520294189 1.000005722045898 C 14.68160533905029 1.000005722045898 13.97185516357422 1.008016586303711 13.28546524047852 1.015766143798828 C 12.69160461425781 1.022466659545898 12.13067531585693 1.02879524230957 11.75999450683594 1.02879524230957 L 1.329940795898438 1.02879524230957 C 1.181163787841797 1.535762786865234 0.9725666046142578 2.832334518432617 1.002935409545898 5.419145584106445 C 1.032224655151367 7.914335250854492 1.273065567016602 10.68211650848389 1.647224426269531 12.82321643829346 C 1.78309440612793 13.6019458770752 1.821455001831055 14.37384605407715 1.858564376831055 15.12033653259277 C 1.92265510559082 16.40995597839355 1.983194351196289 17.6280460357666 2.56180477142334 18.48117637634277 C 3.310708999633789 19.58617973327637 3.524008750915527 20.63057136535645 3.61536693572998 21.38399505615234 L 4.439535140991211 20.96420669555664 L 4.478605270385742 22.5511360168457 C 4.487174987792969 22.89954566955566 4.486775398254395 23.2379264831543 4.486414909362793 23.53646659851074 C 4.486114501953125 23.78389739990234 4.485751152038574 24.08318710327148 4.493995666503906 24.32602310180664 C 4.53376293182373 24.32690238952637 4.575771331787109 24.32739639282227 4.620035171508789 24.32739639282227 C 5.467293739318848 24.32739639282227 7.231040000915527 24.14489364624023 9.608584403991699 22.93775367736816 C 10.42695808410645 22.13275909423828 11.88236808776855 20.06854820251465 12.95587539672852 18.54600524902344 C 13.61240482330322 17.61486053466797 14.18583488464355 16.80157852172852 14.5845947265625 16.30217742919922 C 14.82388401031494 15.76582431793213 15.04842758178711 15.33595943450928 15.24820518493652 14.95349597930908 C 15.8188648223877 13.86100578308105 16.26961517333984 12.99808597564697 16.73707580566406 10.19772624969482 C 17.4511775970459 5.925935745239258 17.5176830291748 2.713125228881836 17.51740455627441 1.000011444091797 C 17.04819869995117 1.000316619873047 16.46570205688477 1.005393981933594 15.95463562011719 1.010366439819336 L 15.92404556274414 1.010665893554688 L 15.89349555969238 1.009096145629883 C 15.81295490264893 1.004945755004883 15.63057518005371 1.000005722045898 15.21907520294189 1.000005722045898 M 17.56151580810547 -3.814697265625e-06 C 18.12612533569336 -3.814697265625e-06 18.51357460021973 0.007196426391601563 18.51357460021973 0.02879524230957031 C 18.51357460021973 1.313995361328125 18.61977577209473 5.000396728515625 17.72338485717773 10.36260604858398 C 17.05288505554199 14.37930583953857 16.37878608703613 14.69070625305176 15.44548511505127 16.82820510864258 C 14.40148544311523 18.09270668029785 11.5619945526123 22.5045051574707 10.19309520721436 23.76180648803711 C 6.283503532409668 25.78770637512207 3.804905891418457 25.26750564575195 3.804904937744141 25.26750564575195 C 3.388125419616699 25.26750564575195 3.51468563079834 24.0292854309082 3.47890567779541 22.57574653625488 L 3.049805641174316 22.7943058013916 C 2.355905532836914 22.7943058013916 3.093005180358887 21.04740524291992 1.734004974365234 19.04220581054688 C 0.6243057250976563 17.406005859375 1.033805847167969 15.12540626525879 0.6621055603027344 12.9951057434082 C -0.2198944091796875 7.947896957397461 -0.2981853485107422 0.02879524230957031 0.9015045166015625 0.02879524230957031 L 11.75999450683594 0.02879524230957031 C 12.78846549987793 0.02879714965820313 15.33425521850586 -0.02103233337402344 15.94490528106689 0.01041603088378906 C 16.52565574645996 0.004766464233398438 17.10226440429688 -3.814697265625e-06 17.56151580810547 -3.814697265625e-06 Z" stroke="none" fill="#707070"/>
            </g>
          </g>
        </g>
      </g>
      <path id="Path_47" data-name="Path 47" d="M-7.642,9.475,8.709-3.884l.468,35.646L-7.642,9.475Z" transform="matrix(0.799, 0.602, -0.602, 0.799, 1327.129, 249.705)" fill="#fff"/>
      <path id="Path_49" data-name="Path 49" d="M-.422,2.786,2.721.183l.38,47.55-2.937-3.9Z" transform="matrix(0.799, 0.602, -0.602, 0.799, 1341.56, 249.732)" fill="#fff"/>
      <path id="Path_48" data-name="Path 48" d="M2.656,8.211,10.987,4l.768,35.051L-7.867,13.012Z" transform="matrix(-0.799, -0.602, 0.602, -0.799, 1414.454, 296.344)" fill="#fff"/>
      <path id="Path_50" data-name="Path 50" d="M.158,1.66l2.8-1.5.038,41.1L.6,42.882Z" transform="matrix(-0.799, -0.602, 0.602, -0.799, 1402.797, 287.327)" fill="#fff"/>
    </g>
  </g>
</svg>
