<svg xmlns="http://www.w3.org/2000/svg" width="220.255" height="75.969" viewBox="0 0 220.255 75.969">
  <g id="Group_64" data-name="Group 64" transform="translate(-1132.223 -302.61)">
    <g id="Group_9" data-name="Group 9" transform="translate(13.006 162.81)">
      <g id="Group_5" data-name="Group 5" transform="translate(26.686 6.535)">
        <path id="Path_118" data-name="Path 118" d="M35.848,0c27.3,0,34.407,1.185,34.407,29.088S65.16,63.31,37.862,63.31,0,58.445,0,30.522,8.547,0,35.848,0Z" transform="translate(1092.531 145.265)" fill="#b1d7ee"/>
      </g>
    </g>
    <g id="Group_9-2" data-name="Group 9" transform="translate(88.006 162.81)">
      <g id="Group_5-2" data-name="Group 5" transform="translate(26.686 6.535)">
        <path id="Path_118-2" data-name="Path 118" d="M35.848,0c27.3,0,34.407,1.185,34.407,29.088S65.16,63.31,37.862,63.31,0,58.445,0,30.522,8.547,0,35.848,0Z" transform="translate(1092.531 145.265)" fill="#f9d0a7"/>
        <circle id="Ellipse_4" data-name="Ellipse 4" cx="4.5" cy="4.5" r="4.5" transform="translate(1099.314 152.172)" fill="#f9d0a7"/>
        <circle id="Ellipse_5" data-name="Ellipse 5" cx="4.5" cy="4.5" r="4.5" transform="translate(1109.314 152.172)" fill="#f9d0a7"/>
        <circle id="Ellipse_6" data-name="Ellipse 6" cx="4.5" cy="4.5" r="4.5" transform="translate(1119.314 152.172)" fill="#f9d0a7"/>
      </g>
    </g>
    <g id="Group_9-3" data-name="Group 9" transform="translate(163.006 163.469)">
      <g id="Group_5-3" data-name="Group 5" transform="translate(26.686 6.535)">
        <path id="Path_118-3" data-name="Path 118" d="M35.848,0c27.3,0,34.407,1.185,34.407,29.088S65.16,63.31,37.862,63.31,0,58.445,0,30.522,8.547,0,35.848,0Z" transform="translate(1092.531 145.265)" fill="#e4c1c1"/>
        <circle id="Ellipse_4-2" data-name="Ellipse 4" cx="4.5" cy="4.5" r="4.5" transform="translate(1099.314 152.172)" fill="#e4c1c1"/>
        <circle id="Ellipse_5-2" data-name="Ellipse 5" cx="4.5" cy="4.5" r="4.5" transform="translate(1109.314 152.172)" fill="#e4c1c1"/>
        <circle id="Ellipse_6-2" data-name="Ellipse 6" cx="4.5" cy="4.5" r="4.5" transform="translate(1119.314 152.172)" fill="#e4c1c1"/>
      </g>
    </g>
    <g id="Group_9-4" data-name="Group 9" transform="translate(13.006 156.841)">
      <g id="Group_5-4" data-name="Group 5" transform="translate(26.686 6.535)">
        <path id="Path_118-4" data-name="Path 118" d="M35.848,0c27.3,0,34.407,1.185,34.407,29.088S65.16,63.31,37.862,63.31,0,58.445,0,30.522,8.547,0,35.848,0Z" transform="translate(1092.531 145.265)" fill="#73bae4"/>
      </g>
    </g>
    <g id="Group_9-5" data-name="Group 9" transform="translate(88.006 156.841)">
      <g id="Group_5-5" data-name="Group 5" transform="translate(26.686 6.535)">
        <path id="Path_118-5" data-name="Path 118" d="M35.848,0c27.3,0,34.407,1.185,34.407,29.088S65.16,63.31,37.862,63.31,0,58.445,0,30.522,8.547,0,35.848,0Z" transform="translate(1092.531 145.265)" fill="#feae5f"/>
        <circle id="Ellipse_4-3" data-name="Ellipse 4" cx="4.5" cy="4.5" r="4.5" transform="translate(1099.314 152.172)" fill="#feae5f"/>
        <circle id="Ellipse_5-3" data-name="Ellipse 5" cx="4.5" cy="4.5" r="4.5" transform="translate(1109.314 152.172)" fill="#feae5f"/>
        <circle id="Ellipse_6-3" data-name="Ellipse 6" cx="4.5" cy="4.5" r="4.5" transform="translate(1119.314 152.172)" fill="#feae5f"/>
      </g>
    </g>
    <g id="Group_9-6" data-name="Group 9" transform="translate(163.006 157.5)">
      <g id="Group_5-6" data-name="Group 5" transform="translate(26.686 6.535)">
        <path id="Path_118-6" data-name="Path 118" d="M35.848,0c27.3,0,34.407,1.185,34.407,29.088S65.16,63.31,37.862,63.31,0,58.445,0,30.522,8.547,0,35.848,0Z" transform="translate(1092.531 145.265)" fill="#e19797"/>
        <circle id="Ellipse_4-4" data-name="Ellipse 4" cx="4.5" cy="4.5" r="4.5" transform="translate(1099.314 152.172)" fill="#e19797"/>
        <circle id="Ellipse_5-4" data-name="Ellipse 5" cx="4.5" cy="4.5" r="4.5" transform="translate(1109.314 152.172)" fill="#e19797"/>
        <circle id="Ellipse_6-4" data-name="Ellipse 6" cx="4.5" cy="4.5" r="4.5" transform="translate(1119.314 152.172)" fill="#e19797"/>
      </g>
    </g>
    <g id="Group_9-7" data-name="Group 9" transform="translate(13.006 150.81)">
      <g id="Group_5-7" data-name="Group 5" transform="translate(26.686 6.535)">
        <path id="Path_118-7" data-name="Path 118" d="M35.848,0c27.3,0,34.407,1.185,34.407,29.088S65.16,63.31,37.862,63.31,0,58.445,0,30.522,8.547,0,35.848,0Z" transform="translate(1092.531 145.265)" fill="#1799e4"/>
        <circle id="Ellipse_4-5" data-name="Ellipse 4" cx="4.5" cy="4.5" r="4.5" transform="translate(1099.314 152.172)" fill="#fff"/>
        <circle id="Ellipse_5-5" data-name="Ellipse 5" cx="4.5" cy="4.5" r="4.5" transform="translate(1109.314 152.172)" fill="#fff"/>
        <circle id="Ellipse_6-5" data-name="Ellipse 6" cx="4.5" cy="4.5" r="4.5" transform="translate(1119.314 152.172)" fill="#fff"/>
      </g>
      <rect id="Rectangle_31" data-name="Rectangle 31" width="59" height="6" rx="3" transform="translate(1125.031 172.197)" fill="#fff"/>
      <rect id="Rectangle_32" data-name="Rectangle 32" width="59" height="6" rx="3" transform="translate(1125.031 179.197)" fill="#fff"/>
      <rect id="Rectangle_33" data-name="Rectangle 33" width="59" height="6" rx="3" transform="translate(1125.031 186.197)" fill="#fff"/>
      <rect id="Rectangle_34" data-name="Rectangle 34" width="59" height="6" rx="3" transform="translate(1125.031 193.197)" fill="#fff"/>
    </g>
    <g id="Group_9-8" data-name="Group 9" transform="translate(88.006 150.81)">
      <g id="Group_5-8" data-name="Group 5" transform="translate(26.686 6.535)">
        <path id="Path_118-8" data-name="Path 118" d="M35.848,0c27.3,0,34.407,1.185,34.407,29.088S65.16,63.31,37.862,63.31,0,58.445,0,30.522,8.547,0,35.848,0Z" transform="translate(1092.531 145.265)" fill="#fc8106"/>
        <circle id="Ellipse_4-6" data-name="Ellipse 4" cx="4.5" cy="4.5" r="4.5" transform="translate(1099.314 152.172)" fill="#fc8106"/>
        <circle id="Ellipse_5-6" data-name="Ellipse 5" cx="4.5" cy="4.5" r="4.5" transform="translate(1109.314 152.172)" fill="#fc8106"/>
        <circle id="Ellipse_6-6" data-name="Ellipse 6" cx="4.5" cy="4.5" r="4.5" transform="translate(1119.314 152.172)" fill="#fc8106"/>
      </g>
      <rect id="Rectangle_31-2" data-name="Rectangle 31" width="59" height="6" rx="3" transform="translate(1125.031 172.197)" fill="#fff"/>
      <rect id="Rectangle_32-2" data-name="Rectangle 32" width="59" height="6" rx="3" transform="translate(1125.031 179.197)" fill="#fff"/>
      <rect id="Rectangle_33-2" data-name="Rectangle 33" width="59" height="6" rx="3" transform="translate(1125.031 186.197)" fill="#fff"/>
      <rect id="Rectangle_34-2" data-name="Rectangle 34" width="59" height="6" rx="3" transform="translate(1125.031 193.197)" fill="#fff"/>
    </g>
    <g id="Group_9-9" data-name="Group 9" transform="translate(163.006 151.469)">
      <g id="Group_5-9" data-name="Group 5" transform="translate(26.686 6.535)">
        <path id="Path_118-9" data-name="Path 118" d="M35.848,0c27.3,0,34.407,1.185,34.407,29.088S65.16,63.31,37.862,63.31,0,58.445,0,30.522,8.547,0,35.848,0Z" transform="translate(1092.531 145.265)" fill="#de4545"/>
        <circle id="Ellipse_4-7" data-name="Ellipse 4" cx="4.5" cy="4.5" r="4.5" transform="translate(1099.314 152.172)" fill="#de4545"/>
        <circle id="Ellipse_5-7" data-name="Ellipse 5" cx="4.5" cy="4.5" r="4.5" transform="translate(1109.314 152.172)" fill="#de4545"/>
        <circle id="Ellipse_6-7" data-name="Ellipse 6" cx="4.5" cy="4.5" r="4.5" transform="translate(1119.314 152.172)" fill="#de4545"/>
      </g>
      <rect id="Rectangle_31-3" data-name="Rectangle 31" width="59" height="6" rx="3" transform="translate(1125.031 172.197)" fill="#fff"/>
      <rect id="Rectangle_32-3" data-name="Rectangle 32" width="59" height="6" rx="3" transform="translate(1125.031 179.197)" fill="#fff"/>
      <rect id="Rectangle_33-3" data-name="Rectangle 33" width="59" height="6" rx="3" transform="translate(1125.031 186.197)" fill="#fff"/>
      <rect id="Rectangle_34-3" data-name="Rectangle 34" width="59" height="6" rx="3" transform="translate(1125.031 193.197)" fill="#fff"/>
    </g>
    <g id="Group_62" data-name="Group 62" transform="translate(82.664 158.828)">
      <circle id="Ellipse_4-8" data-name="Ellipse 4" cx="4.5" cy="4.5" r="4.5" transform="translate(1131.314 150.172)" fill="#fff"/>
      <circle id="Ellipse_5-8" data-name="Ellipse 5" cx="4.5" cy="4.5" r="4.5" transform="translate(1141.314 150.172)" fill="#fff"/>
      <circle id="Ellipse_6-8" data-name="Ellipse 6" cx="4.5" cy="4.5" r="4.5" transform="translate(1151.314 150.172)" fill="#fff"/>
    </g>
    <g id="Group_63" data-name="Group 63" transform="translate(158.037 158.828)">
      <circle id="Ellipse_4-9" data-name="Ellipse 4" cx="4.5" cy="4.5" r="4.5" transform="translate(1131.314 150.172)" fill="#fff"/>
      <circle id="Ellipse_5-9" data-name="Ellipse 5" cx="4.5" cy="4.5" r="4.5" transform="translate(1141.314 150.172)" fill="#fff"/>
      <circle id="Ellipse_6-9" data-name="Ellipse 6" cx="4.5" cy="4.5" r="4.5" transform="translate(1151.314 150.172)" fill="#fff"/>
    </g>
  </g>
</svg>
